G04 #@! TF.GenerationSoftware,KiCad,Pcbnew,(6.0.1)*
G04 #@! TF.CreationDate,2022-02-14T12:17:54+02:00*
G04 #@! TF.ProjectId,ATTiny3216,41545469-6e79-4333-9231-362e6b696361,rev?*
G04 #@! TF.SameCoordinates,Original*
G04 #@! TF.FileFunction,Copper,L1,Top*
G04 #@! TF.FilePolarity,Positive*
%FSLAX46Y46*%
G04 Gerber Fmt 4.6, Leading zero omitted, Abs format (unit mm)*
G04 Created by KiCad (PCBNEW (6.0.1)) date 2022-02-14 12:17:54*
%MOMM*%
%LPD*%
G01*
G04 APERTURE LIST*
%ADD10C,0.100000*%
%ADD11C,0.150000*%
%ADD12C,0.300000*%
%ADD13C,0.400000*%
G04 #@! TA.AperFunction,NonConductor*
%ADD14C,0.150000*%
G04 #@! TD*
G04 #@! TA.AperFunction,SMDPad,CuDef*
%ADD15R,1.524000X2.286000*%
G04 #@! TD*
G04 #@! TA.AperFunction,SMDPad,CuDef*
%ADD16R,2.000000X0.600000*%
G04 #@! TD*
G04 #@! TA.AperFunction,SMDPad,CuDef*
%ADD17R,1.270000X1.905000*%
G04 #@! TD*
G04 #@! TA.AperFunction,SMDPad,CuDef*
%ADD18R,1.270000X2.540000*%
G04 #@! TD*
G04 #@! TA.AperFunction,SMDPad,CuDef*
%ADD19R,1.998980X0.998220*%
G04 #@! TD*
G04 #@! TA.AperFunction,SMDPad,CuDef*
%ADD20R,1.249680X2.999740*%
G04 #@! TD*
G04 #@! TA.AperFunction,Conductor*
%ADD21C,0.400000*%
G04 #@! TD*
G04 APERTURE END LIST*
D10*
D11*
X177002200Y-166007200D02*
X177002200Y-198007200D01*
X285002200Y-198007200D01*
X285002200Y-166007200D01*
X177002200Y-166007200D01*
D10*
D11*
X10000000Y-10000000D02*
X10000000Y-200007200D01*
X287002200Y-200007200D01*
X287002200Y-10000000D01*
X10000000Y-10000000D01*
D10*
D11*
X12000000Y-12000000D02*
X12000000Y-198007200D01*
X285002200Y-198007200D01*
X285002200Y-12000000D01*
X12000000Y-12000000D01*
D10*
D11*
X60000000Y-12000000D02*
X60000000Y-10000000D01*
D10*
D11*
X110000000Y-12000000D02*
X110000000Y-10000000D01*
D10*
D11*
X160000000Y-12000000D02*
X160000000Y-10000000D01*
D10*
D11*
X210000000Y-12000000D02*
X210000000Y-10000000D01*
D10*
D11*
X260000000Y-12000000D02*
X260000000Y-10000000D01*
D10*
D11*
X36065476Y-11588095D02*
X35322619Y-11588095D01*
X35694047Y-11588095D02*
X35694047Y-10288095D01*
X35570238Y-10473809D01*
X35446428Y-10597619D01*
X35322619Y-10659523D01*
D10*
D11*
X85322619Y-10411904D02*
X85384523Y-10350000D01*
X85508333Y-10288095D01*
X85817857Y-10288095D01*
X85941666Y-10350000D01*
X86003571Y-10411904D01*
X86065476Y-10535714D01*
X86065476Y-10659523D01*
X86003571Y-10845238D01*
X85260714Y-11588095D01*
X86065476Y-11588095D01*
D10*
D11*
X135260714Y-10288095D02*
X136065476Y-10288095D01*
X135632142Y-10783333D01*
X135817857Y-10783333D01*
X135941666Y-10845238D01*
X136003571Y-10907142D01*
X136065476Y-11030952D01*
X136065476Y-11340476D01*
X136003571Y-11464285D01*
X135941666Y-11526190D01*
X135817857Y-11588095D01*
X135446428Y-11588095D01*
X135322619Y-11526190D01*
X135260714Y-11464285D01*
D10*
D11*
X185941666Y-10721428D02*
X185941666Y-11588095D01*
X185632142Y-10226190D02*
X185322619Y-11154761D01*
X186127380Y-11154761D01*
D10*
D11*
X236003571Y-10288095D02*
X235384523Y-10288095D01*
X235322619Y-10907142D01*
X235384523Y-10845238D01*
X235508333Y-10783333D01*
X235817857Y-10783333D01*
X235941666Y-10845238D01*
X236003571Y-10907142D01*
X236065476Y-11030952D01*
X236065476Y-11340476D01*
X236003571Y-11464285D01*
X235941666Y-11526190D01*
X235817857Y-11588095D01*
X235508333Y-11588095D01*
X235384523Y-11526190D01*
X235322619Y-11464285D01*
D10*
D11*
X285941666Y-10288095D02*
X285694047Y-10288095D01*
X285570238Y-10350000D01*
X285508333Y-10411904D01*
X285384523Y-10597619D01*
X285322619Y-10845238D01*
X285322619Y-11340476D01*
X285384523Y-11464285D01*
X285446428Y-11526190D01*
X285570238Y-11588095D01*
X285817857Y-11588095D01*
X285941666Y-11526190D01*
X286003571Y-11464285D01*
X286065476Y-11340476D01*
X286065476Y-11030952D01*
X286003571Y-10907142D01*
X285941666Y-10845238D01*
X285817857Y-10783333D01*
X285570238Y-10783333D01*
X285446428Y-10845238D01*
X285384523Y-10907142D01*
X285322619Y-11030952D01*
D10*
D11*
X60000000Y-198007200D02*
X60000000Y-200007200D01*
D10*
D11*
X110000000Y-198007200D02*
X110000000Y-200007200D01*
D10*
D11*
X160000000Y-198007200D02*
X160000000Y-200007200D01*
D10*
D11*
X210000000Y-198007200D02*
X210000000Y-200007200D01*
D10*
D11*
X260000000Y-198007200D02*
X260000000Y-200007200D01*
D10*
D11*
X36065476Y-199595295D02*
X35322619Y-199595295D01*
X35694047Y-199595295D02*
X35694047Y-198295295D01*
X35570238Y-198481009D01*
X35446428Y-198604819D01*
X35322619Y-198666723D01*
D10*
D11*
X85322619Y-198419104D02*
X85384523Y-198357200D01*
X85508333Y-198295295D01*
X85817857Y-198295295D01*
X85941666Y-198357200D01*
X86003571Y-198419104D01*
X86065476Y-198542914D01*
X86065476Y-198666723D01*
X86003571Y-198852438D01*
X85260714Y-199595295D01*
X86065476Y-199595295D01*
D10*
D11*
X135260714Y-198295295D02*
X136065476Y-198295295D01*
X135632142Y-198790533D01*
X135817857Y-198790533D01*
X135941666Y-198852438D01*
X136003571Y-198914342D01*
X136065476Y-199038152D01*
X136065476Y-199347676D01*
X136003571Y-199471485D01*
X135941666Y-199533390D01*
X135817857Y-199595295D01*
X135446428Y-199595295D01*
X135322619Y-199533390D01*
X135260714Y-199471485D01*
D10*
D11*
X185941666Y-198728628D02*
X185941666Y-199595295D01*
X185632142Y-198233390D02*
X185322619Y-199161961D01*
X186127380Y-199161961D01*
D10*
D11*
X236003571Y-198295295D02*
X235384523Y-198295295D01*
X235322619Y-198914342D01*
X235384523Y-198852438D01*
X235508333Y-198790533D01*
X235817857Y-198790533D01*
X235941666Y-198852438D01*
X236003571Y-198914342D01*
X236065476Y-199038152D01*
X236065476Y-199347676D01*
X236003571Y-199471485D01*
X235941666Y-199533390D01*
X235817857Y-199595295D01*
X235508333Y-199595295D01*
X235384523Y-199533390D01*
X235322619Y-199471485D01*
D10*
D11*
X285941666Y-198295295D02*
X285694047Y-198295295D01*
X285570238Y-198357200D01*
X285508333Y-198419104D01*
X285384523Y-198604819D01*
X285322619Y-198852438D01*
X285322619Y-199347676D01*
X285384523Y-199471485D01*
X285446428Y-199533390D01*
X285570238Y-199595295D01*
X285817857Y-199595295D01*
X285941666Y-199533390D01*
X286003571Y-199471485D01*
X286065476Y-199347676D01*
X286065476Y-199038152D01*
X286003571Y-198914342D01*
X285941666Y-198852438D01*
X285817857Y-198790533D01*
X285570238Y-198790533D01*
X285446428Y-198852438D01*
X285384523Y-198914342D01*
X285322619Y-199038152D01*
D10*
D11*
X10000000Y-60000000D02*
X12000000Y-60000000D01*
D10*
D11*
X10000000Y-110000000D02*
X12000000Y-110000000D01*
D10*
D11*
X10000000Y-160000000D02*
X12000000Y-160000000D01*
D10*
D11*
X10690476Y-35216666D02*
X11309523Y-35216666D01*
X10566666Y-35588095D02*
X11000000Y-34288095D01*
X11433333Y-35588095D01*
D10*
D11*
X11092857Y-84907142D02*
X11278571Y-84969047D01*
X11340476Y-85030952D01*
X11402380Y-85154761D01*
X11402380Y-85340476D01*
X11340476Y-85464285D01*
X11278571Y-85526190D01*
X11154761Y-85588095D01*
X10659523Y-85588095D01*
X10659523Y-84288095D01*
X11092857Y-84288095D01*
X11216666Y-84350000D01*
X11278571Y-84411904D01*
X11340476Y-84535714D01*
X11340476Y-84659523D01*
X11278571Y-84783333D01*
X11216666Y-84845238D01*
X11092857Y-84907142D01*
X10659523Y-84907142D01*
D10*
D11*
X11402380Y-135464285D02*
X11340476Y-135526190D01*
X11154761Y-135588095D01*
X11030952Y-135588095D01*
X10845238Y-135526190D01*
X10721428Y-135402380D01*
X10659523Y-135278571D01*
X10597619Y-135030952D01*
X10597619Y-134845238D01*
X10659523Y-134597619D01*
X10721428Y-134473809D01*
X10845238Y-134350000D01*
X11030952Y-134288095D01*
X11154761Y-134288095D01*
X11340476Y-134350000D01*
X11402380Y-134411904D01*
D10*
D11*
X10659523Y-185588095D02*
X10659523Y-184288095D01*
X10969047Y-184288095D01*
X11154761Y-184350000D01*
X11278571Y-184473809D01*
X11340476Y-184597619D01*
X11402380Y-184845238D01*
X11402380Y-185030952D01*
X11340476Y-185278571D01*
X11278571Y-185402380D01*
X11154761Y-185526190D01*
X10969047Y-185588095D01*
X10659523Y-185588095D01*
D10*
D11*
X287002200Y-60000000D02*
X285002200Y-60000000D01*
D10*
D11*
X287002200Y-110000000D02*
X285002200Y-110000000D01*
D10*
D11*
X287002200Y-160000000D02*
X285002200Y-160000000D01*
D10*
D11*
X285692676Y-35216666D02*
X286311723Y-35216666D01*
X285568866Y-35588095D02*
X286002200Y-34288095D01*
X286435533Y-35588095D01*
D10*
D11*
X286095057Y-84907142D02*
X286280771Y-84969047D01*
X286342676Y-85030952D01*
X286404580Y-85154761D01*
X286404580Y-85340476D01*
X286342676Y-85464285D01*
X286280771Y-85526190D01*
X286156961Y-85588095D01*
X285661723Y-85588095D01*
X285661723Y-84288095D01*
X286095057Y-84288095D01*
X286218866Y-84350000D01*
X286280771Y-84411904D01*
X286342676Y-84535714D01*
X286342676Y-84659523D01*
X286280771Y-84783333D01*
X286218866Y-84845238D01*
X286095057Y-84907142D01*
X285661723Y-84907142D01*
D10*
D11*
X286404580Y-135464285D02*
X286342676Y-135526190D01*
X286156961Y-135588095D01*
X286033152Y-135588095D01*
X285847438Y-135526190D01*
X285723628Y-135402380D01*
X285661723Y-135278571D01*
X285599819Y-135030952D01*
X285599819Y-134845238D01*
X285661723Y-134597619D01*
X285723628Y-134473809D01*
X285847438Y-134350000D01*
X286033152Y-134288095D01*
X286156961Y-134288095D01*
X286342676Y-134350000D01*
X286404580Y-134411904D01*
D10*
D11*
X285661723Y-185588095D02*
X285661723Y-184288095D01*
X285971247Y-184288095D01*
X286156961Y-184350000D01*
X286280771Y-184473809D01*
X286342676Y-184597619D01*
X286404580Y-184845238D01*
X286404580Y-185030952D01*
X286342676Y-185278571D01*
X286280771Y-185402380D01*
X286156961Y-185526190D01*
X285971247Y-185588095D01*
X285661723Y-185588095D01*
D10*
D11*
X200434342Y-193785771D02*
X200434342Y-192285771D01*
X200791485Y-192285771D01*
X201005771Y-192357200D01*
X201148628Y-192500057D01*
X201220057Y-192642914D01*
X201291485Y-192928628D01*
X201291485Y-193142914D01*
X201220057Y-193428628D01*
X201148628Y-193571485D01*
X201005771Y-193714342D01*
X200791485Y-193785771D01*
X200434342Y-193785771D01*
X202577200Y-193785771D02*
X202577200Y-193000057D01*
X202505771Y-192857200D01*
X202362914Y-192785771D01*
X202077200Y-192785771D01*
X201934342Y-192857200D01*
X202577200Y-193714342D02*
X202434342Y-193785771D01*
X202077200Y-193785771D01*
X201934342Y-193714342D01*
X201862914Y-193571485D01*
X201862914Y-193428628D01*
X201934342Y-193285771D01*
X202077200Y-193214342D01*
X202434342Y-193214342D01*
X202577200Y-193142914D01*
X203077200Y-192785771D02*
X203648628Y-192785771D01*
X203291485Y-192285771D02*
X203291485Y-193571485D01*
X203362914Y-193714342D01*
X203505771Y-193785771D01*
X203648628Y-193785771D01*
X204720057Y-193714342D02*
X204577200Y-193785771D01*
X204291485Y-193785771D01*
X204148628Y-193714342D01*
X204077200Y-193571485D01*
X204077200Y-193000057D01*
X204148628Y-192857200D01*
X204291485Y-192785771D01*
X204577200Y-192785771D01*
X204720057Y-192857200D01*
X204791485Y-193000057D01*
X204791485Y-193142914D01*
X204077200Y-193285771D01*
X205434342Y-193642914D02*
X205505771Y-193714342D01*
X205434342Y-193785771D01*
X205362914Y-193714342D01*
X205434342Y-193642914D01*
X205434342Y-193785771D01*
X205434342Y-192857200D02*
X205505771Y-192928628D01*
X205434342Y-193000057D01*
X205362914Y-192928628D01*
X205434342Y-192857200D01*
X205434342Y-193000057D01*
D10*
D11*
X177002200Y-194507200D02*
X285002200Y-194507200D01*
D10*
D11*
X178434342Y-196585771D02*
X178434342Y-195085771D01*
X179291485Y-196585771D02*
X178648628Y-195728628D01*
X179291485Y-195085771D02*
X178434342Y-195942914D01*
X179934342Y-196585771D02*
X179934342Y-195585771D01*
X179934342Y-195085771D02*
X179862914Y-195157200D01*
X179934342Y-195228628D01*
X180005771Y-195157200D01*
X179934342Y-195085771D01*
X179934342Y-195228628D01*
X181505771Y-196442914D02*
X181434342Y-196514342D01*
X181220057Y-196585771D01*
X181077200Y-196585771D01*
X180862914Y-196514342D01*
X180720057Y-196371485D01*
X180648628Y-196228628D01*
X180577200Y-195942914D01*
X180577200Y-195728628D01*
X180648628Y-195442914D01*
X180720057Y-195300057D01*
X180862914Y-195157200D01*
X181077200Y-195085771D01*
X181220057Y-195085771D01*
X181434342Y-195157200D01*
X181505771Y-195228628D01*
X182791485Y-196585771D02*
X182791485Y-195800057D01*
X182720057Y-195657200D01*
X182577200Y-195585771D01*
X182291485Y-195585771D01*
X182148628Y-195657200D01*
X182791485Y-196514342D02*
X182648628Y-196585771D01*
X182291485Y-196585771D01*
X182148628Y-196514342D01*
X182077200Y-196371485D01*
X182077200Y-196228628D01*
X182148628Y-196085771D01*
X182291485Y-196014342D01*
X182648628Y-196014342D01*
X182791485Y-195942914D01*
X184148628Y-196585771D02*
X184148628Y-195085771D01*
X184148628Y-196514342D02*
X184005771Y-196585771D01*
X183720057Y-196585771D01*
X183577200Y-196514342D01*
X183505771Y-196442914D01*
X183434342Y-196300057D01*
X183434342Y-195871485D01*
X183505771Y-195728628D01*
X183577200Y-195657200D01*
X183720057Y-195585771D01*
X184005771Y-195585771D01*
X184148628Y-195657200D01*
X186005771Y-195800057D02*
X186505771Y-195800057D01*
X186720057Y-196585771D02*
X186005771Y-196585771D01*
X186005771Y-195085771D01*
X186720057Y-195085771D01*
X187362914Y-196442914D02*
X187434342Y-196514342D01*
X187362914Y-196585771D01*
X187291485Y-196514342D01*
X187362914Y-196442914D01*
X187362914Y-196585771D01*
X188077200Y-196585771D02*
X188077200Y-195085771D01*
X188434342Y-195085771D01*
X188648628Y-195157200D01*
X188791485Y-195300057D01*
X188862914Y-195442914D01*
X188934342Y-195728628D01*
X188934342Y-195942914D01*
X188862914Y-196228628D01*
X188791485Y-196371485D01*
X188648628Y-196514342D01*
X188434342Y-196585771D01*
X188077200Y-196585771D01*
X189577200Y-196442914D02*
X189648628Y-196514342D01*
X189577200Y-196585771D01*
X189505771Y-196514342D01*
X189577200Y-196442914D01*
X189577200Y-196585771D01*
X190220057Y-196157200D02*
X190934342Y-196157200D01*
X190077200Y-196585771D02*
X190577200Y-195085771D01*
X191077200Y-196585771D01*
X191577200Y-196442914D02*
X191648628Y-196514342D01*
X191577200Y-196585771D01*
X191505771Y-196514342D01*
X191577200Y-196442914D01*
X191577200Y-196585771D01*
X194577200Y-196585771D02*
X194577200Y-195085771D01*
X194720057Y-196014342D02*
X195148628Y-196585771D01*
X195148628Y-195585771D02*
X194577200Y-196157200D01*
X195791485Y-196585771D02*
X195791485Y-195585771D01*
X195791485Y-195085771D02*
X195720057Y-195157200D01*
X195791485Y-195228628D01*
X195862914Y-195157200D01*
X195791485Y-195085771D01*
X195791485Y-195228628D01*
X197148628Y-196514342D02*
X197005771Y-196585771D01*
X196720057Y-196585771D01*
X196577200Y-196514342D01*
X196505771Y-196442914D01*
X196434342Y-196300057D01*
X196434342Y-195871485D01*
X196505771Y-195728628D01*
X196577200Y-195657200D01*
X196720057Y-195585771D01*
X197005771Y-195585771D01*
X197148628Y-195657200D01*
X198434342Y-196585771D02*
X198434342Y-195800057D01*
X198362914Y-195657200D01*
X198220057Y-195585771D01*
X197934342Y-195585771D01*
X197791485Y-195657200D01*
X198434342Y-196514342D02*
X198291485Y-196585771D01*
X197934342Y-196585771D01*
X197791485Y-196514342D01*
X197720057Y-196371485D01*
X197720057Y-196228628D01*
X197791485Y-196085771D01*
X197934342Y-196014342D01*
X198291485Y-196014342D01*
X198434342Y-195942914D01*
X199791485Y-196585771D02*
X199791485Y-195085771D01*
X199791485Y-196514342D02*
X199648628Y-196585771D01*
X199362914Y-196585771D01*
X199220057Y-196514342D01*
X199148628Y-196442914D01*
X199077200Y-196300057D01*
X199077200Y-195871485D01*
X199148628Y-195728628D01*
X199220057Y-195657200D01*
X199362914Y-195585771D01*
X199648628Y-195585771D01*
X199791485Y-195657200D01*
X202077200Y-197157200D02*
X202005771Y-197085771D01*
X201862914Y-196871485D01*
X201791485Y-196728628D01*
X201720057Y-196514342D01*
X201648628Y-196157200D01*
X201648628Y-195871485D01*
X201720057Y-195514342D01*
X201791485Y-195300057D01*
X201862914Y-195157200D01*
X202005771Y-194942914D01*
X202077200Y-194871485D01*
X203291485Y-195085771D02*
X203005771Y-195085771D01*
X202862914Y-195157200D01*
X202791485Y-195228628D01*
X202648628Y-195442914D01*
X202577200Y-195728628D01*
X202577200Y-196300057D01*
X202648628Y-196442914D01*
X202720057Y-196514342D01*
X202862914Y-196585771D01*
X203148628Y-196585771D01*
X203291485Y-196514342D01*
X203362914Y-196442914D01*
X203434342Y-196300057D01*
X203434342Y-195942914D01*
X203362914Y-195800057D01*
X203291485Y-195728628D01*
X203148628Y-195657200D01*
X202862914Y-195657200D01*
X202720057Y-195728628D01*
X202648628Y-195800057D01*
X202577200Y-195942914D01*
X204077200Y-196442914D02*
X204148628Y-196514342D01*
X204077200Y-196585771D01*
X204005771Y-196514342D01*
X204077200Y-196442914D01*
X204077200Y-196585771D01*
X205077200Y-195085771D02*
X205220057Y-195085771D01*
X205362914Y-195157200D01*
X205434342Y-195228628D01*
X205505771Y-195371485D01*
X205577200Y-195657200D01*
X205577200Y-196014342D01*
X205505771Y-196300057D01*
X205434342Y-196442914D01*
X205362914Y-196514342D01*
X205220057Y-196585771D01*
X205077200Y-196585771D01*
X204934342Y-196514342D01*
X204862914Y-196442914D01*
X204791485Y-196300057D01*
X204720057Y-196014342D01*
X204720057Y-195657200D01*
X204791485Y-195371485D01*
X204862914Y-195228628D01*
X204934342Y-195157200D01*
X205077200Y-195085771D01*
X206220057Y-196442914D02*
X206291485Y-196514342D01*
X206220057Y-196585771D01*
X206148628Y-196514342D01*
X206220057Y-196442914D01*
X206220057Y-196585771D01*
X207720057Y-196585771D02*
X206862914Y-196585771D01*
X207291485Y-196585771D02*
X207291485Y-195085771D01*
X207148628Y-195300057D01*
X207005771Y-195442914D01*
X206862914Y-195514342D01*
X208220057Y-197157200D02*
X208291485Y-197085771D01*
X208434342Y-196871485D01*
X208505771Y-196728628D01*
X208577200Y-196514342D01*
X208648628Y-196157200D01*
X208648628Y-195871485D01*
X208577200Y-195514342D01*
X208505771Y-195300057D01*
X208434342Y-195157200D01*
X208291485Y-194942914D01*
X208220057Y-194871485D01*
D10*
D11*
X177002200Y-191507200D02*
X285002200Y-191507200D01*
D10*
D12*
X264411485Y-193785771D02*
X263911485Y-193071485D01*
X263554342Y-193785771D02*
X263554342Y-192285771D01*
X264125771Y-192285771D01*
X264268628Y-192357200D01*
X264340057Y-192428628D01*
X264411485Y-192571485D01*
X264411485Y-192785771D01*
X264340057Y-192928628D01*
X264268628Y-193000057D01*
X264125771Y-193071485D01*
X263554342Y-193071485D01*
X265625771Y-193714342D02*
X265482914Y-193785771D01*
X265197200Y-193785771D01*
X265054342Y-193714342D01*
X264982914Y-193571485D01*
X264982914Y-193000057D01*
X265054342Y-192857200D01*
X265197200Y-192785771D01*
X265482914Y-192785771D01*
X265625771Y-192857200D01*
X265697200Y-193000057D01*
X265697200Y-193142914D01*
X264982914Y-193285771D01*
X266197200Y-192785771D02*
X266554342Y-193785771D01*
X266911485Y-192785771D01*
X267482914Y-193642914D02*
X267554342Y-193714342D01*
X267482914Y-193785771D01*
X267411485Y-193714342D01*
X267482914Y-193642914D01*
X267482914Y-193785771D01*
X267482914Y-192857200D02*
X267554342Y-192928628D01*
X267482914Y-193000057D01*
X267411485Y-192928628D01*
X267482914Y-192857200D01*
X267482914Y-193000057D01*
D10*
D11*
X178362914Y-193714342D02*
X178577200Y-193785771D01*
X178934342Y-193785771D01*
X179077200Y-193714342D01*
X179148628Y-193642914D01*
X179220057Y-193500057D01*
X179220057Y-193357200D01*
X179148628Y-193214342D01*
X179077200Y-193142914D01*
X178934342Y-193071485D01*
X178648628Y-193000057D01*
X178505771Y-192928628D01*
X178434342Y-192857200D01*
X178362914Y-192714342D01*
X178362914Y-192571485D01*
X178434342Y-192428628D01*
X178505771Y-192357200D01*
X178648628Y-192285771D01*
X179005771Y-192285771D01*
X179220057Y-192357200D01*
X179862914Y-193785771D02*
X179862914Y-192785771D01*
X179862914Y-192285771D02*
X179791485Y-192357200D01*
X179862914Y-192428628D01*
X179934342Y-192357200D01*
X179862914Y-192285771D01*
X179862914Y-192428628D01*
X180434342Y-192785771D02*
X181220057Y-192785771D01*
X180434342Y-193785771D01*
X181220057Y-193785771D01*
X182362914Y-193714342D02*
X182220057Y-193785771D01*
X181934342Y-193785771D01*
X181791485Y-193714342D01*
X181720057Y-193571485D01*
X181720057Y-193000057D01*
X181791485Y-192857200D01*
X181934342Y-192785771D01*
X182220057Y-192785771D01*
X182362914Y-192857200D01*
X182434342Y-193000057D01*
X182434342Y-193142914D01*
X181720057Y-193285771D01*
X183077200Y-193642914D02*
X183148628Y-193714342D01*
X183077200Y-193785771D01*
X183005771Y-193714342D01*
X183077200Y-193642914D01*
X183077200Y-193785771D01*
X183077200Y-192857200D02*
X183148628Y-192928628D01*
X183077200Y-193000057D01*
X183005771Y-192928628D01*
X183077200Y-192857200D01*
X183077200Y-193000057D01*
X184862914Y-193357200D02*
X185577200Y-193357200D01*
X184720057Y-193785771D02*
X185220057Y-192285771D01*
X185720057Y-193785771D01*
X186862914Y-192785771D02*
X186862914Y-193785771D01*
X186505771Y-192214342D02*
X186148628Y-193285771D01*
X187077200Y-193285771D01*
D10*
D11*
X263434342Y-196585771D02*
X263434342Y-195085771D01*
X264791485Y-196585771D02*
X264791485Y-195085771D01*
X264791485Y-196514342D02*
X264648628Y-196585771D01*
X264362914Y-196585771D01*
X264220057Y-196514342D01*
X264148628Y-196442914D01*
X264077200Y-196300057D01*
X264077200Y-195871485D01*
X264148628Y-195728628D01*
X264220057Y-195657200D01*
X264362914Y-195585771D01*
X264648628Y-195585771D01*
X264791485Y-195657200D01*
X265505771Y-196442914D02*
X265577200Y-196514342D01*
X265505771Y-196585771D01*
X265434342Y-196514342D01*
X265505771Y-196442914D01*
X265505771Y-196585771D01*
X265505771Y-195657200D02*
X265577200Y-195728628D01*
X265505771Y-195800057D01*
X265434342Y-195728628D01*
X265505771Y-195657200D01*
X265505771Y-195800057D01*
X268148628Y-196585771D02*
X267291485Y-196585771D01*
X267720057Y-196585771D02*
X267720057Y-195085771D01*
X267577200Y-195300057D01*
X267434342Y-195442914D01*
X267291485Y-195514342D01*
X269862914Y-195014342D02*
X268577200Y-196942914D01*
X271148628Y-196585771D02*
X270291485Y-196585771D01*
X270720057Y-196585771D02*
X270720057Y-195085771D01*
X270577200Y-195300057D01*
X270434342Y-195442914D01*
X270291485Y-195514342D01*
D10*
D11*
X177002200Y-187507200D02*
X285002200Y-187507200D01*
D10*
D13*
X178714580Y-188211961D02*
X179857438Y-188211961D01*
X179036009Y-190211961D02*
X179286009Y-188211961D01*
X180274104Y-190211961D02*
X180440771Y-188878628D01*
X180524104Y-188211961D02*
X180416961Y-188307200D01*
X180500295Y-188402438D01*
X180607438Y-188307200D01*
X180524104Y-188211961D01*
X180500295Y-188402438D01*
X181107438Y-188878628D02*
X181869342Y-188878628D01*
X181476485Y-188211961D02*
X181262200Y-189926247D01*
X181333628Y-190116723D01*
X181512200Y-190211961D01*
X181702676Y-190211961D01*
X182655057Y-190211961D02*
X182476485Y-190116723D01*
X182405057Y-189926247D01*
X182619342Y-188211961D01*
X184190771Y-190116723D02*
X183988390Y-190211961D01*
X183607438Y-190211961D01*
X183428866Y-190116723D01*
X183357438Y-189926247D01*
X183452676Y-189164342D01*
X183571723Y-188973866D01*
X183774104Y-188878628D01*
X184155057Y-188878628D01*
X184333628Y-188973866D01*
X184405057Y-189164342D01*
X184381247Y-189354819D01*
X183405057Y-189545295D01*
X185155057Y-190021485D02*
X185238390Y-190116723D01*
X185131247Y-190211961D01*
X185047914Y-190116723D01*
X185155057Y-190021485D01*
X185131247Y-190211961D01*
X185286009Y-188973866D02*
X185369342Y-189069104D01*
X185262200Y-189164342D01*
X185178866Y-189069104D01*
X185286009Y-188973866D01*
X185262200Y-189164342D01*
D10*
D11*
X178934342Y-185600057D02*
X178434342Y-185600057D01*
X178434342Y-186385771D02*
X178434342Y-184885771D01*
X179148628Y-184885771D01*
X179720057Y-186385771D02*
X179720057Y-185385771D01*
X179720057Y-184885771D02*
X179648628Y-184957200D01*
X179720057Y-185028628D01*
X179791485Y-184957200D01*
X179720057Y-184885771D01*
X179720057Y-185028628D01*
X180648628Y-186385771D02*
X180505771Y-186314342D01*
X180434342Y-186171485D01*
X180434342Y-184885771D01*
X181791485Y-186314342D02*
X181648628Y-186385771D01*
X181362914Y-186385771D01*
X181220057Y-186314342D01*
X181148628Y-186171485D01*
X181148628Y-185600057D01*
X181220057Y-185457200D01*
X181362914Y-185385771D01*
X181648628Y-185385771D01*
X181791485Y-185457200D01*
X181862914Y-185600057D01*
X181862914Y-185742914D01*
X181148628Y-185885771D01*
X182505771Y-186242914D02*
X182577200Y-186314342D01*
X182505771Y-186385771D01*
X182434342Y-186314342D01*
X182505771Y-186242914D01*
X182505771Y-186385771D01*
X182505771Y-185457200D02*
X182577200Y-185528628D01*
X182505771Y-185600057D01*
X182434342Y-185528628D01*
X182505771Y-185457200D01*
X182505771Y-185600057D01*
X184291485Y-185957200D02*
X185005771Y-185957200D01*
X184148628Y-186385771D02*
X184648628Y-184885771D01*
X185148628Y-186385771D01*
X185434342Y-184885771D02*
X186291485Y-184885771D01*
X185862914Y-186385771D02*
X185862914Y-184885771D01*
X186577200Y-184885771D02*
X187434342Y-184885771D01*
X187005771Y-186385771D02*
X187005771Y-184885771D01*
X187934342Y-186385771D02*
X187934342Y-185385771D01*
X187934342Y-184885771D02*
X187862914Y-184957200D01*
X187934342Y-185028628D01*
X188005771Y-184957200D01*
X187934342Y-184885771D01*
X187934342Y-185028628D01*
X188648628Y-185385771D02*
X188648628Y-186385771D01*
X188648628Y-185528628D02*
X188720057Y-185457200D01*
X188862914Y-185385771D01*
X189077200Y-185385771D01*
X189220057Y-185457200D01*
X189291485Y-185600057D01*
X189291485Y-186385771D01*
X189862914Y-185385771D02*
X190220057Y-186385771D01*
X190577200Y-185385771D02*
X190220057Y-186385771D01*
X190077200Y-186742914D01*
X190005771Y-186814342D01*
X189862914Y-186885771D01*
X191005771Y-184885771D02*
X191934342Y-184885771D01*
X191434342Y-185457200D01*
X191648628Y-185457200D01*
X191791485Y-185528628D01*
X191862914Y-185600057D01*
X191934342Y-185742914D01*
X191934342Y-186100057D01*
X191862914Y-186242914D01*
X191791485Y-186314342D01*
X191648628Y-186385771D01*
X191220057Y-186385771D01*
X191077200Y-186314342D01*
X191005771Y-186242914D01*
X192505771Y-185028628D02*
X192577200Y-184957200D01*
X192720057Y-184885771D01*
X193077200Y-184885771D01*
X193220057Y-184957200D01*
X193291485Y-185028628D01*
X193362914Y-185171485D01*
X193362914Y-185314342D01*
X193291485Y-185528628D01*
X192434342Y-186385771D01*
X193362914Y-186385771D01*
X194791485Y-186385771D02*
X193934342Y-186385771D01*
X194362914Y-186385771D02*
X194362914Y-184885771D01*
X194220057Y-185100057D01*
X194077200Y-185242914D01*
X193934342Y-185314342D01*
X196077200Y-184885771D02*
X195791485Y-184885771D01*
X195648628Y-184957200D01*
X195577200Y-185028628D01*
X195434342Y-185242914D01*
X195362914Y-185528628D01*
X195362914Y-186100057D01*
X195434342Y-186242914D01*
X195505771Y-186314342D01*
X195648628Y-186385771D01*
X195934342Y-186385771D01*
X196077200Y-186314342D01*
X196148628Y-186242914D01*
X196220057Y-186100057D01*
X196220057Y-185742914D01*
X196148628Y-185600057D01*
X196077200Y-185528628D01*
X195934342Y-185457200D01*
X195648628Y-185457200D01*
X195505771Y-185528628D01*
X195434342Y-185600057D01*
X195362914Y-185742914D01*
X196862914Y-186242914D02*
X196934342Y-186314342D01*
X196862914Y-186385771D01*
X196791485Y-186314342D01*
X196862914Y-186242914D01*
X196862914Y-186385771D01*
X197577200Y-186385771D02*
X197577200Y-184885771D01*
X197720057Y-185814342D02*
X198148628Y-186385771D01*
X198148628Y-185385771D02*
X197577200Y-185957200D01*
X198791485Y-186385771D02*
X198791485Y-185385771D01*
X198791485Y-184885771D02*
X198720057Y-184957200D01*
X198791485Y-185028628D01*
X198862914Y-184957200D01*
X198791485Y-184885771D01*
X198791485Y-185028628D01*
X200148628Y-186314342D02*
X200005771Y-186385771D01*
X199720057Y-186385771D01*
X199577200Y-186314342D01*
X199505771Y-186242914D01*
X199434342Y-186100057D01*
X199434342Y-185671485D01*
X199505771Y-185528628D01*
X199577200Y-185457200D01*
X199720057Y-185385771D01*
X200005771Y-185385771D01*
X200148628Y-185457200D01*
X201434342Y-186385771D02*
X201434342Y-185600057D01*
X201362914Y-185457200D01*
X201220057Y-185385771D01*
X200934342Y-185385771D01*
X200791485Y-185457200D01*
X201434342Y-186314342D02*
X201291485Y-186385771D01*
X200934342Y-186385771D01*
X200791485Y-186314342D01*
X200720057Y-186171485D01*
X200720057Y-186028628D01*
X200791485Y-185885771D01*
X200934342Y-185814342D01*
X201291485Y-185814342D01*
X201434342Y-185742914D01*
X202791485Y-186385771D02*
X202791485Y-184885771D01*
X202791485Y-186314342D02*
X202648628Y-186385771D01*
X202362914Y-186385771D01*
X202220057Y-186314342D01*
X202148628Y-186242914D01*
X202077200Y-186100057D01*
X202077200Y-185671485D01*
X202148628Y-185528628D01*
X202220057Y-185457200D01*
X202362914Y-185385771D01*
X202648628Y-185385771D01*
X202791485Y-185457200D01*
X203148628Y-186528628D02*
X204291485Y-186528628D01*
X204648628Y-185385771D02*
X204648628Y-186885771D01*
X204648628Y-185457200D02*
X204791485Y-185385771D01*
X205077200Y-185385771D01*
X205220057Y-185457200D01*
X205291485Y-185528628D01*
X205362914Y-185671485D01*
X205362914Y-186100057D01*
X205291485Y-186242914D01*
X205220057Y-186314342D01*
X205077200Y-186385771D01*
X204791485Y-186385771D01*
X204648628Y-186314342D01*
X206648628Y-186314342D02*
X206505771Y-186385771D01*
X206220057Y-186385771D01*
X206077200Y-186314342D01*
X206005771Y-186242914D01*
X205934342Y-186100057D01*
X205934342Y-185671485D01*
X206005771Y-185528628D01*
X206077200Y-185457200D01*
X206220057Y-185385771D01*
X206505771Y-185385771D01*
X206648628Y-185457200D01*
X207291485Y-186385771D02*
X207291485Y-184885771D01*
X207291485Y-185457200D02*
X207434342Y-185385771D01*
X207720057Y-185385771D01*
X207862914Y-185457200D01*
X207934342Y-185528628D01*
X208005771Y-185671485D01*
X208005771Y-186100057D01*
X207934342Y-186242914D01*
X207862914Y-186314342D01*
X207720057Y-186385771D01*
X207434342Y-186385771D01*
X207291485Y-186314342D01*
D10*
D11*
X177002200Y-181507200D02*
X285002200Y-181507200D01*
D10*
D11*
X178362914Y-183614342D02*
X178577200Y-183685771D01*
X178934342Y-183685771D01*
X179077200Y-183614342D01*
X179148628Y-183542914D01*
X179220057Y-183400057D01*
X179220057Y-183257200D01*
X179148628Y-183114342D01*
X179077200Y-183042914D01*
X178934342Y-182971485D01*
X178648628Y-182900057D01*
X178505771Y-182828628D01*
X178434342Y-182757200D01*
X178362914Y-182614342D01*
X178362914Y-182471485D01*
X178434342Y-182328628D01*
X178505771Y-182257200D01*
X178648628Y-182185771D01*
X179005771Y-182185771D01*
X179220057Y-182257200D01*
X179862914Y-183685771D02*
X179862914Y-182185771D01*
X180505771Y-183685771D02*
X180505771Y-182900057D01*
X180434342Y-182757200D01*
X180291485Y-182685771D01*
X180077200Y-182685771D01*
X179934342Y-182757200D01*
X179862914Y-182828628D01*
X181791485Y-183614342D02*
X181648628Y-183685771D01*
X181362914Y-183685771D01*
X181220057Y-183614342D01*
X181148628Y-183471485D01*
X181148628Y-182900057D01*
X181220057Y-182757200D01*
X181362914Y-182685771D01*
X181648628Y-182685771D01*
X181791485Y-182757200D01*
X181862914Y-182900057D01*
X181862914Y-183042914D01*
X181148628Y-183185771D01*
X183077200Y-183614342D02*
X182934342Y-183685771D01*
X182648628Y-183685771D01*
X182505771Y-183614342D01*
X182434342Y-183471485D01*
X182434342Y-182900057D01*
X182505771Y-182757200D01*
X182648628Y-182685771D01*
X182934342Y-182685771D01*
X183077200Y-182757200D01*
X183148628Y-182900057D01*
X183148628Y-183042914D01*
X182434342Y-183185771D01*
X183577200Y-182685771D02*
X184148628Y-182685771D01*
X183791485Y-182185771D02*
X183791485Y-183471485D01*
X183862914Y-183614342D01*
X184005771Y-183685771D01*
X184148628Y-183685771D01*
X184648628Y-183542914D02*
X184720057Y-183614342D01*
X184648628Y-183685771D01*
X184577200Y-183614342D01*
X184648628Y-183542914D01*
X184648628Y-183685771D01*
X184648628Y-182757200D02*
X184720057Y-182828628D01*
X184648628Y-182900057D01*
X184577200Y-182828628D01*
X184648628Y-182757200D01*
X184648628Y-182900057D01*
D10*
D12*
D10*
D11*
D10*
D11*
D10*
D11*
D10*
D11*
D10*
D11*
X197002200Y-191507200D02*
X197002200Y-194507200D01*
D10*
D11*
X261002200Y-191507200D02*
X261002200Y-198007200D01*
D14*
X51943333Y-174992380D02*
X51943333Y-173992380D01*
X52324285Y-173992380D01*
X52419523Y-174040000D01*
X52467142Y-174087619D01*
X52514761Y-174182857D01*
X52514761Y-174325714D01*
X52467142Y-174420952D01*
X52419523Y-174468571D01*
X52324285Y-174516190D01*
X51943333Y-174516190D01*
X52895714Y-174706666D02*
X53371904Y-174706666D01*
X52800476Y-174992380D02*
X53133809Y-173992380D01*
X53467142Y-174992380D01*
X54276666Y-173992380D02*
X53800476Y-173992380D01*
X53752857Y-174468571D01*
X53800476Y-174420952D01*
X53895714Y-174373333D01*
X54133809Y-174373333D01*
X54229047Y-174420952D01*
X54276666Y-174468571D01*
X54324285Y-174563809D01*
X54324285Y-174801904D01*
X54276666Y-174897142D01*
X54229047Y-174944761D01*
X54133809Y-174992380D01*
X53895714Y-174992380D01*
X53800476Y-174944761D01*
X53752857Y-174897142D01*
D11*
D14*
X51871904Y-172452380D02*
X51871904Y-171452380D01*
X52252857Y-171452380D01*
X52348095Y-171500000D01*
X52395714Y-171547619D01*
X52443333Y-171642857D01*
X52443333Y-171785714D01*
X52395714Y-171880952D01*
X52348095Y-171928571D01*
X52252857Y-171976190D01*
X51871904Y-171976190D01*
X53443333Y-172357142D02*
X53395714Y-172404761D01*
X53252857Y-172452380D01*
X53157619Y-172452380D01*
X53014761Y-172404761D01*
X52919523Y-172309523D01*
X52871904Y-172214285D01*
X52824285Y-172023809D01*
X52824285Y-171880952D01*
X52871904Y-171690476D01*
X52919523Y-171595238D01*
X53014761Y-171500000D01*
X53157619Y-171452380D01*
X53252857Y-171452380D01*
X53395714Y-171500000D01*
X53443333Y-171547619D01*
X54395714Y-172452380D02*
X53824285Y-172452380D01*
X54110000Y-172452380D02*
X54110000Y-171452380D01*
X54014761Y-171595238D01*
X53919523Y-171690476D01*
X53824285Y-171738095D01*
D11*
D14*
X51871904Y-169912380D02*
X51871904Y-168912380D01*
X52252857Y-168912380D01*
X52348095Y-168960000D01*
X52395714Y-169007619D01*
X52443333Y-169102857D01*
X52443333Y-169245714D01*
X52395714Y-169340952D01*
X52348095Y-169388571D01*
X52252857Y-169436190D01*
X51871904Y-169436190D01*
X53443333Y-169817142D02*
X53395714Y-169864761D01*
X53252857Y-169912380D01*
X53157619Y-169912380D01*
X53014761Y-169864761D01*
X52919523Y-169769523D01*
X52871904Y-169674285D01*
X52824285Y-169483809D01*
X52824285Y-169340952D01*
X52871904Y-169150476D01*
X52919523Y-169055238D01*
X53014761Y-168960000D01*
X53157619Y-168912380D01*
X53252857Y-168912380D01*
X53395714Y-168960000D01*
X53443333Y-169007619D01*
X53824285Y-169007619D02*
X53871904Y-168960000D01*
X53967142Y-168912380D01*
X54205238Y-168912380D01*
X54300476Y-168960000D01*
X54348095Y-169007619D01*
X54395714Y-169102857D01*
X54395714Y-169198095D01*
X54348095Y-169340952D01*
X53776666Y-169912380D01*
X54395714Y-169912380D01*
D11*
D14*
X51871904Y-167372380D02*
X51871904Y-166372380D01*
X52252857Y-166372380D01*
X52348095Y-166420000D01*
X52395714Y-166467619D01*
X52443333Y-166562857D01*
X52443333Y-166705714D01*
X52395714Y-166800952D01*
X52348095Y-166848571D01*
X52252857Y-166896190D01*
X51871904Y-166896190D01*
X53443333Y-167277142D02*
X53395714Y-167324761D01*
X53252857Y-167372380D01*
X53157619Y-167372380D01*
X53014761Y-167324761D01*
X52919523Y-167229523D01*
X52871904Y-167134285D01*
X52824285Y-166943809D01*
X52824285Y-166800952D01*
X52871904Y-166610476D01*
X52919523Y-166515238D01*
X53014761Y-166420000D01*
X53157619Y-166372380D01*
X53252857Y-166372380D01*
X53395714Y-166420000D01*
X53443333Y-166467619D01*
X53776666Y-166372380D02*
X54395714Y-166372380D01*
X54062380Y-166753333D01*
X54205238Y-166753333D01*
X54300476Y-166800952D01*
X54348095Y-166848571D01*
X54395714Y-166943809D01*
X54395714Y-167181904D01*
X54348095Y-167277142D01*
X54300476Y-167324761D01*
X54205238Y-167372380D01*
X53919523Y-167372380D01*
X53824285Y-167324761D01*
X53776666Y-167277142D01*
D11*
D14*
X51943333Y-164832380D02*
X51943333Y-163832380D01*
X52324285Y-163832380D01*
X52419523Y-163880000D01*
X52467142Y-163927619D01*
X52514761Y-164022857D01*
X52514761Y-164165714D01*
X52467142Y-164260952D01*
X52419523Y-164308571D01*
X52324285Y-164356190D01*
X51943333Y-164356190D01*
X52895714Y-164546666D02*
X53371904Y-164546666D01*
X52800476Y-164832380D02*
X53133809Y-163832380D01*
X53467142Y-164832380D01*
X54324285Y-164832380D02*
X53752857Y-164832380D01*
X54038571Y-164832380D02*
X54038571Y-163832380D01*
X53943333Y-163975238D01*
X53848095Y-164070476D01*
X53752857Y-164118095D01*
D11*
D14*
X51943333Y-162292380D02*
X51943333Y-161292380D01*
X52324285Y-161292380D01*
X52419523Y-161340000D01*
X52467142Y-161387619D01*
X52514761Y-161482857D01*
X52514761Y-161625714D01*
X52467142Y-161720952D01*
X52419523Y-161768571D01*
X52324285Y-161816190D01*
X51943333Y-161816190D01*
X52895714Y-162006666D02*
X53371904Y-162006666D01*
X52800476Y-162292380D02*
X53133809Y-161292380D01*
X53467142Y-162292380D01*
X53752857Y-161387619D02*
X53800476Y-161340000D01*
X53895714Y-161292380D01*
X54133809Y-161292380D01*
X54229047Y-161340000D01*
X54276666Y-161387619D01*
X54324285Y-161482857D01*
X54324285Y-161578095D01*
X54276666Y-161720952D01*
X53705238Y-162292380D01*
X54324285Y-162292380D01*
D11*
D14*
X51943333Y-159752380D02*
X51943333Y-158752380D01*
X52324285Y-158752380D01*
X52419523Y-158800000D01*
X52467142Y-158847619D01*
X52514761Y-158942857D01*
X52514761Y-159085714D01*
X52467142Y-159180952D01*
X52419523Y-159228571D01*
X52324285Y-159276190D01*
X51943333Y-159276190D01*
X52895714Y-159466666D02*
X53371904Y-159466666D01*
X52800476Y-159752380D02*
X53133809Y-158752380D01*
X53467142Y-159752380D01*
X53705238Y-158752380D02*
X54324285Y-158752380D01*
X53990952Y-159133333D01*
X54133809Y-159133333D01*
X54229047Y-159180952D01*
X54276666Y-159228571D01*
X54324285Y-159323809D01*
X54324285Y-159561904D01*
X54276666Y-159657142D01*
X54229047Y-159704761D01*
X54133809Y-159752380D01*
X53848095Y-159752380D01*
X53752857Y-159704761D01*
X53705238Y-159657142D01*
D11*
D14*
X52348095Y-156260000D02*
X52252857Y-156212380D01*
X52110000Y-156212380D01*
X51967142Y-156260000D01*
X51871904Y-156355238D01*
X51824285Y-156450476D01*
X51776666Y-156640952D01*
X51776666Y-156783809D01*
X51824285Y-156974285D01*
X51871904Y-157069523D01*
X51967142Y-157164761D01*
X52110000Y-157212380D01*
X52205238Y-157212380D01*
X52348095Y-157164761D01*
X52395714Y-157117142D01*
X52395714Y-156783809D01*
X52205238Y-156783809D01*
X52824285Y-157212380D02*
X52824285Y-156212380D01*
X53395714Y-157212380D01*
X53395714Y-156212380D01*
X53871904Y-157212380D02*
X53871904Y-156212380D01*
X54110000Y-156212380D01*
X54252857Y-156260000D01*
X54348095Y-156355238D01*
X54395714Y-156450476D01*
X54443333Y-156640952D01*
X54443333Y-156783809D01*
X54395714Y-156974285D01*
X54348095Y-157069523D01*
X54252857Y-157164761D01*
X54110000Y-157212380D01*
X53871904Y-157212380D01*
D11*
D14*
X22026904Y-174992380D02*
X22026904Y-173992380D01*
X22598333Y-174992380D01*
X22598333Y-173992380D01*
X23788809Y-173944761D02*
X22931666Y-175230476D01*
X24074523Y-174706666D02*
X24550714Y-174706666D01*
X23979285Y-174992380D02*
X24312619Y-173992380D01*
X24645952Y-174992380D01*
D11*
D14*
X22026904Y-172452380D02*
X22026904Y-171452380D01*
X22407857Y-171452380D01*
X22503095Y-171500000D01*
X22550714Y-171547619D01*
X22598333Y-171642857D01*
X22598333Y-171785714D01*
X22550714Y-171880952D01*
X22503095Y-171928571D01*
X22407857Y-171976190D01*
X22026904Y-171976190D01*
X23360238Y-171928571D02*
X23503095Y-171976190D01*
X23550714Y-172023809D01*
X23598333Y-172119047D01*
X23598333Y-172261904D01*
X23550714Y-172357142D01*
X23503095Y-172404761D01*
X23407857Y-172452380D01*
X23026904Y-172452380D01*
X23026904Y-171452380D01*
X23360238Y-171452380D01*
X23455476Y-171500000D01*
X23503095Y-171547619D01*
X23550714Y-171642857D01*
X23550714Y-171738095D01*
X23503095Y-171833333D01*
X23455476Y-171880952D01*
X23360238Y-171928571D01*
X23026904Y-171928571D01*
X24455476Y-171785714D02*
X24455476Y-172452380D01*
X24217380Y-171404761D02*
X23979285Y-172119047D01*
X24598333Y-172119047D01*
D11*
D14*
X22026904Y-169912380D02*
X22026904Y-168912380D01*
X22407857Y-168912380D01*
X22503095Y-168960000D01*
X22550714Y-169007619D01*
X22598333Y-169102857D01*
X22598333Y-169245714D01*
X22550714Y-169340952D01*
X22503095Y-169388571D01*
X22407857Y-169436190D01*
X22026904Y-169436190D01*
X23360238Y-169388571D02*
X23503095Y-169436190D01*
X23550714Y-169483809D01*
X23598333Y-169579047D01*
X23598333Y-169721904D01*
X23550714Y-169817142D01*
X23503095Y-169864761D01*
X23407857Y-169912380D01*
X23026904Y-169912380D01*
X23026904Y-168912380D01*
X23360238Y-168912380D01*
X23455476Y-168960000D01*
X23503095Y-169007619D01*
X23550714Y-169102857D01*
X23550714Y-169198095D01*
X23503095Y-169293333D01*
X23455476Y-169340952D01*
X23360238Y-169388571D01*
X23026904Y-169388571D01*
X24503095Y-168912380D02*
X24026904Y-168912380D01*
X23979285Y-169388571D01*
X24026904Y-169340952D01*
X24122142Y-169293333D01*
X24360238Y-169293333D01*
X24455476Y-169340952D01*
X24503095Y-169388571D01*
X24550714Y-169483809D01*
X24550714Y-169721904D01*
X24503095Y-169817142D01*
X24455476Y-169864761D01*
X24360238Y-169912380D01*
X24122142Y-169912380D01*
X24026904Y-169864761D01*
X23979285Y-169817142D01*
D11*
D14*
X22098333Y-167372380D02*
X22098333Y-166372380D01*
X22479285Y-166372380D01*
X22574523Y-166420000D01*
X22622142Y-166467619D01*
X22669761Y-166562857D01*
X22669761Y-166705714D01*
X22622142Y-166800952D01*
X22574523Y-166848571D01*
X22479285Y-166896190D01*
X22098333Y-166896190D01*
X23050714Y-167086666D02*
X23526904Y-167086666D01*
X22955476Y-167372380D02*
X23288809Y-166372380D01*
X23622142Y-167372380D01*
X23860238Y-166372380D02*
X24526904Y-166372380D01*
X24098333Y-167372380D01*
D11*
D14*
X22098333Y-164832380D02*
X22098333Y-163832380D01*
X22479285Y-163832380D01*
X22574523Y-163880000D01*
X22622142Y-163927619D01*
X22669761Y-164022857D01*
X22669761Y-164165714D01*
X22622142Y-164260952D01*
X22574523Y-164308571D01*
X22479285Y-164356190D01*
X22098333Y-164356190D01*
X23050714Y-164546666D02*
X23526904Y-164546666D01*
X22955476Y-164832380D02*
X23288809Y-163832380D01*
X23622142Y-164832380D01*
X24384047Y-163832380D02*
X24193571Y-163832380D01*
X24098333Y-163880000D01*
X24050714Y-163927619D01*
X23955476Y-164070476D01*
X23907857Y-164260952D01*
X23907857Y-164641904D01*
X23955476Y-164737142D01*
X24003095Y-164784761D01*
X24098333Y-164832380D01*
X24288809Y-164832380D01*
X24384047Y-164784761D01*
X24431666Y-164737142D01*
X24479285Y-164641904D01*
X24479285Y-164403809D01*
X24431666Y-164308571D01*
X24384047Y-164260952D01*
X24288809Y-164213333D01*
X24098333Y-164213333D01*
X24003095Y-164260952D01*
X23955476Y-164308571D01*
X23907857Y-164403809D01*
D11*
D14*
X22098333Y-162292380D02*
X22098333Y-161292380D01*
X22479285Y-161292380D01*
X22574523Y-161340000D01*
X22622142Y-161387619D01*
X22669761Y-161482857D01*
X22669761Y-161625714D01*
X22622142Y-161720952D01*
X22574523Y-161768571D01*
X22479285Y-161816190D01*
X22098333Y-161816190D01*
X23050714Y-162006666D02*
X23526904Y-162006666D01*
X22955476Y-162292380D02*
X23288809Y-161292380D01*
X23622142Y-162292380D01*
X24431666Y-161292380D02*
X23955476Y-161292380D01*
X23907857Y-161768571D01*
X23955476Y-161720952D01*
X24050714Y-161673333D01*
X24288809Y-161673333D01*
X24384047Y-161720952D01*
X24431666Y-161768571D01*
X24479285Y-161863809D01*
X24479285Y-162101904D01*
X24431666Y-162197142D01*
X24384047Y-162244761D01*
X24288809Y-162292380D01*
X24050714Y-162292380D01*
X23955476Y-162244761D01*
X23907857Y-162197142D01*
D11*
D14*
X22098333Y-159752380D02*
X22098333Y-158752380D01*
X22479285Y-158752380D01*
X22574523Y-158800000D01*
X22622142Y-158847619D01*
X22669761Y-158942857D01*
X22669761Y-159085714D01*
X22622142Y-159180952D01*
X22574523Y-159228571D01*
X22479285Y-159276190D01*
X22098333Y-159276190D01*
X23050714Y-159466666D02*
X23526904Y-159466666D01*
X22955476Y-159752380D02*
X23288809Y-158752380D01*
X23622142Y-159752380D01*
X24384047Y-159085714D02*
X24384047Y-159752380D01*
X24145952Y-158704761D02*
X23907857Y-159419047D01*
X24526904Y-159419047D01*
D11*
D14*
X21931666Y-156212380D02*
X22265000Y-157212380D01*
X22598333Y-156212380D01*
X23503095Y-157117142D02*
X23455476Y-157164761D01*
X23312619Y-157212380D01*
X23217380Y-157212380D01*
X23074523Y-157164761D01*
X22979285Y-157069523D01*
X22931666Y-156974285D01*
X22884047Y-156783809D01*
X22884047Y-156640952D01*
X22931666Y-156450476D01*
X22979285Y-156355238D01*
X23074523Y-156260000D01*
X23217380Y-156212380D01*
X23312619Y-156212380D01*
X23455476Y-156260000D01*
X23503095Y-156307619D01*
X24503095Y-157117142D02*
X24455476Y-157164761D01*
X24312619Y-157212380D01*
X24217380Y-157212380D01*
X24074523Y-157164761D01*
X23979285Y-157069523D01*
X23931666Y-156974285D01*
X23884047Y-156783809D01*
X23884047Y-156640952D01*
X23931666Y-156450476D01*
X23979285Y-156355238D01*
X24074523Y-156260000D01*
X24217380Y-156212380D01*
X24312619Y-156212380D01*
X24455476Y-156260000D01*
X24503095Y-156307619D01*
D15*
X31266000Y-177588000D03*
X31266000Y-184192000D03*
X26694000Y-177588000D03*
X26694000Y-184192000D03*
D16*
X42324000Y-157955500D03*
X42324000Y-159225500D03*
X42324000Y-160495500D03*
X42324000Y-161765500D03*
X42324000Y-163035500D03*
X42324000Y-164305500D03*
X42324000Y-165575500D03*
X42324000Y-166845500D03*
X42324000Y-168115500D03*
X42324000Y-169385500D03*
X33024000Y-169385500D03*
X33024000Y-168115500D03*
X33024000Y-166845500D03*
X33024000Y-165575500D03*
X33024000Y-164305500D03*
X33024000Y-163035500D03*
X33024000Y-161765500D03*
X33024000Y-160495500D03*
X33024000Y-159225500D03*
X33024000Y-157955500D03*
D17*
X42061000Y-175810000D03*
X38759000Y-175810000D03*
X36981000Y-179620000D03*
X33679000Y-179620000D03*
D18*
X34060000Y-185970000D03*
X36600000Y-185970000D03*
X39140000Y-185970000D03*
X41680000Y-185970000D03*
X44220000Y-185970000D03*
X46760000Y-185970000D03*
D17*
X38759000Y-173270000D03*
X42061000Y-173270000D03*
D19*
X49678460Y-174540000D03*
X46381540Y-172000000D03*
X49678460Y-169460000D03*
X46381540Y-166920000D03*
X49678460Y-164380000D03*
X46381540Y-161840000D03*
X49678460Y-159300000D03*
X46381540Y-156760000D03*
D20*
X35330000Y-153823760D03*
X37870000Y-153823760D03*
X40410000Y-153823760D03*
D19*
X26061540Y-156760000D03*
X29358460Y-159300000D03*
X26061540Y-161840000D03*
X29358460Y-164380000D03*
X26061540Y-166920000D03*
X29358460Y-169460000D03*
X26061540Y-172000000D03*
X29358460Y-174540000D03*
D17*
X45871000Y-182160000D03*
X42569000Y-182160000D03*
D21*
X45871000Y-182160000D02*
X45871000Y-182541000D01*
X46760000Y-183430000D02*
X46760000Y-185970000D01*
X45871000Y-182541000D02*
X46760000Y-183430000D01*
X42819500Y-156760000D02*
X42324000Y-157255500D01*
X46381540Y-156760000D02*
X42819500Y-156760000D01*
X42324000Y-157255500D02*
X42324000Y-157955500D01*
X42324000Y-152893048D02*
X42324000Y-157255500D01*
X41354841Y-151923889D02*
X42324000Y-152893048D01*
X38894841Y-151923889D02*
X41354841Y-151923889D01*
X37870000Y-152948730D02*
X38894841Y-151923889D01*
X37870000Y-153823760D02*
X37870000Y-152948730D01*
X43096000Y-175810000D02*
X42061000Y-175810000D01*
X45871000Y-178585000D02*
X43096000Y-175810000D01*
X45871000Y-182160000D02*
X45871000Y-178585000D01*
X41026000Y-175810000D02*
X42061000Y-175810000D01*
X45725000Y-187640000D02*
X46760000Y-186605000D01*
X46760000Y-186605000D02*
X46760000Y-185970000D01*
X26694000Y-184192000D02*
X26694000Y-185735000D01*
X46760000Y-186605000D02*
X45490000Y-187875000D01*
X45490000Y-187875000D02*
X28345000Y-187875000D01*
X26694000Y-186224000D02*
X26694000Y-184192000D01*
X28345000Y-187875000D02*
X26694000Y-186224000D01*
X40410000Y-172000000D02*
X40410000Y-175175000D01*
X37870000Y-169460000D02*
X40410000Y-172000000D01*
X37870000Y-153823760D02*
X37870000Y-169460000D01*
X40410000Y-175175000D02*
X40410000Y-175707999D01*
X40512001Y-175810000D02*
X40410000Y-175707999D01*
X42061000Y-175810000D02*
X40512001Y-175810000D01*
X29358460Y-173640890D02*
X29729350Y-173270000D01*
X29358460Y-173640890D02*
X29358460Y-174540000D01*
X29358460Y-175439110D02*
X28987570Y-175810000D01*
X29358460Y-174540000D02*
X29358460Y-175439110D01*
X27710000Y-174540000D02*
X29358460Y-174540000D01*
X29358460Y-174540000D02*
X31520000Y-174540000D01*
X41680000Y-183049000D02*
X42569000Y-182160000D01*
X41680000Y-185970000D02*
X41680000Y-183049000D01*
X41680000Y-185970000D02*
X41680000Y-186605000D01*
X35330000Y-155723630D02*
X35330000Y-153823760D01*
X34424000Y-157955500D02*
X35330000Y-157049500D01*
X35330000Y-157049500D02*
X35330000Y-155723630D01*
X33024000Y-157955500D02*
X34424000Y-157955500D01*
X33024000Y-157255500D02*
X33024000Y-157955500D01*
X32528500Y-156760000D02*
X33024000Y-157255500D01*
X26061540Y-156760000D02*
X32528500Y-156760000D01*
X42569000Y-180807500D02*
X42569000Y-182160000D01*
X41381500Y-179620000D02*
X42569000Y-180807500D01*
X36981000Y-179620000D02*
X41381500Y-179620000D01*
X36981000Y-160512500D02*
X36981000Y-179620000D01*
X34424000Y-157955500D02*
X36981000Y-160512500D01*
X32949500Y-159300000D02*
X33024000Y-159225500D01*
X29358460Y-159300000D02*
X32949500Y-159300000D01*
X26061540Y-160940890D02*
X26061540Y-161840000D01*
X26506930Y-160495500D02*
X26061540Y-160940890D01*
X33024000Y-160495500D02*
X26506930Y-160495500D01*
X29358460Y-164031040D02*
X29358460Y-164380000D01*
X31624000Y-161765500D02*
X29358460Y-164031040D01*
X33024000Y-161765500D02*
X31624000Y-161765500D01*
X31624000Y-163035500D02*
X33024000Y-163035500D01*
X30885000Y-163774500D02*
X31624000Y-163035500D01*
X29037062Y-166920000D02*
X28980000Y-166920000D01*
X30885000Y-163774500D02*
X30885000Y-165072062D01*
X30885000Y-165072062D02*
X29037062Y-166920000D01*
X26061540Y-166920000D02*
X28980000Y-166920000D01*
X31624000Y-164305500D02*
X33024000Y-164305500D01*
X31623999Y-165426959D02*
X31624000Y-164305500D01*
X29358460Y-169460000D02*
X29358460Y-167692498D01*
X29358460Y-167692498D02*
X31623999Y-165426959D01*
X32324000Y-165575500D02*
X33024000Y-165575500D01*
X31623999Y-169413063D02*
X31624000Y-166275500D01*
X29037062Y-172000000D02*
X31623999Y-169413063D01*
X31624000Y-166275500D02*
X32324000Y-165575500D01*
X26061540Y-172000000D02*
X29037062Y-172000000D01*
X40924000Y-163035500D02*
X42324000Y-163035500D01*
X40410000Y-162521500D02*
X40924000Y-163035500D01*
X40410000Y-153823760D02*
X40410000Y-162521500D01*
X43724001Y-172774001D02*
X45490000Y-174540000D01*
X43724001Y-168765499D02*
X43724001Y-172774001D01*
X43074002Y-168115500D02*
X43724001Y-168765499D01*
X42324000Y-168115500D02*
X43074002Y-168115500D01*
X49678460Y-174540000D02*
X45490000Y-174540000D01*
X46381540Y-170203040D02*
X46381540Y-172000000D01*
X42324000Y-166845500D02*
X43024000Y-166845500D01*
X43024000Y-166845500D02*
X46381540Y-170203040D01*
X48278970Y-169460000D02*
X49678460Y-169460000D01*
X46702938Y-169460000D02*
X48278970Y-169460000D01*
X44855000Y-167612062D02*
X46702938Y-169460000D01*
X44855000Y-166706500D02*
X44855000Y-167612062D01*
X43724000Y-165575500D02*
X44855000Y-166706500D01*
X42324000Y-165575500D02*
X43724000Y-165575500D01*
X43724000Y-164305500D02*
X42324000Y-164305500D01*
X44666150Y-164305500D02*
X43724000Y-164305500D01*
X46381540Y-166020890D02*
X44666150Y-164305500D01*
X46381540Y-166920000D02*
X46381540Y-166020890D01*
X43024000Y-161765500D02*
X42324000Y-161765500D01*
X43724000Y-162465500D02*
X43024000Y-161765500D01*
X43724000Y-162514808D02*
X43724000Y-162465500D01*
X45589192Y-164380000D02*
X43724000Y-162514808D01*
X49678460Y-164380000D02*
X45589192Y-164380000D01*
X43637550Y-160495500D02*
X42324000Y-160495500D01*
X44982050Y-161840000D02*
X43637550Y-160495500D01*
X46381540Y-161840000D02*
X44982050Y-161840000D01*
X42398500Y-159300000D02*
X42324000Y-159225500D01*
X49678460Y-159300000D02*
X42398500Y-159300000D01*
X38759000Y-173270000D02*
X38759000Y-175810000D01*
X42061000Y-169841000D02*
X41680000Y-169460000D01*
X42061000Y-173270000D02*
X42061000Y-169841000D01*
X36600000Y-183391998D02*
X36600000Y-185970000D01*
X34714001Y-169055499D02*
X34714001Y-181505999D01*
X34714001Y-181505999D02*
X36600000Y-183391998D01*
X33024000Y-168115500D02*
X33774002Y-168115500D01*
X33774002Y-168115500D02*
X34714001Y-169055499D01*
X39140000Y-184300000D02*
X35330000Y-180490000D01*
X39140000Y-185970000D02*
X39140000Y-184300000D01*
X34424000Y-166845500D02*
X33024000Y-166845500D01*
X35330000Y-167751500D02*
X34424000Y-166845500D01*
X35330000Y-180490000D02*
X35330000Y-167751500D01*
X33425000Y-179874000D02*
X33679000Y-179620000D01*
X33024000Y-169385500D02*
X33024000Y-176865000D01*
X31266000Y-184192000D02*
X31266000Y-177588000D01*
X32999500Y-177588000D02*
X32428000Y-177588000D01*
X33679000Y-178267500D02*
X32999500Y-177588000D01*
X33679000Y-179620000D02*
X33679000Y-178267500D01*
X33024000Y-176992000D02*
X32428000Y-177588000D01*
X32428000Y-177588000D02*
X31266000Y-177588000D01*
X33024000Y-176865000D02*
X33024000Y-176992000D01*
G04 #@! TA.AperFunction,Conductor*
G36*
X55719121Y-150938002D02*
G01*
X55765614Y-150991658D01*
X55777000Y-151044000D01*
X55777000Y-189146000D01*
X55756998Y-189214121D01*
X55703342Y-189260614D01*
X55651000Y-189272000D01*
X20724000Y-189272000D01*
X20655879Y-189251998D01*
X20609386Y-189198342D01*
X20598000Y-189146000D01*
X20598000Y-187288134D01*
X32916500Y-187288134D01*
X32923255Y-187350316D01*
X32974385Y-187486705D01*
X33061739Y-187603261D01*
X33178295Y-187690615D01*
X33314684Y-187741745D01*
X33376866Y-187748500D01*
X34743134Y-187748500D01*
X34805316Y-187741745D01*
X34941705Y-187690615D01*
X35058261Y-187603261D01*
X35145615Y-187486705D01*
X35196745Y-187350316D01*
X35203500Y-187288134D01*
X35203500Y-184651866D01*
X35196745Y-184589684D01*
X35145615Y-184453295D01*
X35058261Y-184336739D01*
X34941705Y-184249385D01*
X34805316Y-184198255D01*
X34743134Y-184191500D01*
X33376866Y-184191500D01*
X33314684Y-184198255D01*
X33178295Y-184249385D01*
X33061739Y-184336739D01*
X32974385Y-184453295D01*
X32923255Y-184589684D01*
X32916500Y-184651866D01*
X32916500Y-187288134D01*
X20598000Y-187288134D01*
X20598000Y-185379669D01*
X25424001Y-185379669D01*
X25424371Y-185386490D01*
X25429895Y-185437352D01*
X25433521Y-185452604D01*
X25478676Y-185573054D01*
X25487214Y-185588649D01*
X25563715Y-185690724D01*
X25576276Y-185703285D01*
X25678351Y-185779786D01*
X25693946Y-185788324D01*
X25814394Y-185833478D01*
X25829649Y-185837105D01*
X25880514Y-185842631D01*
X25887328Y-185843000D01*
X26421885Y-185843000D01*
X26437124Y-185838525D01*
X26438329Y-185837135D01*
X26440000Y-185829452D01*
X26440000Y-185824884D01*
X26948000Y-185824884D01*
X26952475Y-185840123D01*
X26953865Y-185841328D01*
X26961548Y-185842999D01*
X27500669Y-185842999D01*
X27507490Y-185842629D01*
X27558352Y-185837105D01*
X27573604Y-185833479D01*
X27694054Y-185788324D01*
X27709649Y-185779786D01*
X27811724Y-185703285D01*
X27824285Y-185690724D01*
X27900786Y-185588649D01*
X27909324Y-185573054D01*
X27954478Y-185452606D01*
X27958105Y-185437351D01*
X27963631Y-185386486D01*
X27964000Y-185379672D01*
X27964000Y-184464115D01*
X27959525Y-184448876D01*
X27958135Y-184447671D01*
X27950452Y-184446000D01*
X26966115Y-184446000D01*
X26950876Y-184450475D01*
X26949671Y-184451865D01*
X26948000Y-184459548D01*
X26948000Y-185824884D01*
X26440000Y-185824884D01*
X26440000Y-184464115D01*
X26435525Y-184448876D01*
X26434135Y-184447671D01*
X26426452Y-184446000D01*
X25442116Y-184446000D01*
X25426877Y-184450475D01*
X25425672Y-184451865D01*
X25424001Y-184459548D01*
X25424001Y-185379669D01*
X20598000Y-185379669D01*
X20598000Y-183919885D01*
X25424000Y-183919885D01*
X25428475Y-183935124D01*
X25429865Y-183936329D01*
X25437548Y-183938000D01*
X26421885Y-183938000D01*
X26437124Y-183933525D01*
X26438329Y-183932135D01*
X26440000Y-183924452D01*
X26440000Y-183919885D01*
X26948000Y-183919885D01*
X26952475Y-183935124D01*
X26953865Y-183936329D01*
X26961548Y-183938000D01*
X27945884Y-183938000D01*
X27961123Y-183933525D01*
X27962328Y-183932135D01*
X27963999Y-183924452D01*
X27963999Y-183004331D01*
X27963629Y-182997510D01*
X27958105Y-182946648D01*
X27954479Y-182931396D01*
X27909324Y-182810946D01*
X27900786Y-182795351D01*
X27824285Y-182693276D01*
X27811724Y-182680715D01*
X27709649Y-182604214D01*
X27694054Y-182595676D01*
X27573606Y-182550522D01*
X27558351Y-182546895D01*
X27507486Y-182541369D01*
X27500672Y-182541000D01*
X26966115Y-182541000D01*
X26950876Y-182545475D01*
X26949671Y-182546865D01*
X26948000Y-182554548D01*
X26948000Y-183919885D01*
X26440000Y-183919885D01*
X26440000Y-182559116D01*
X26435525Y-182543877D01*
X26434135Y-182542672D01*
X26426452Y-182541001D01*
X25887331Y-182541001D01*
X25880510Y-182541371D01*
X25829648Y-182546895D01*
X25814396Y-182550521D01*
X25693946Y-182595676D01*
X25678351Y-182604214D01*
X25576276Y-182680715D01*
X25563715Y-182693276D01*
X25487214Y-182795351D01*
X25478676Y-182810946D01*
X25433522Y-182931394D01*
X25429895Y-182946649D01*
X25424369Y-182997514D01*
X25424000Y-183004328D01*
X25424000Y-183919885D01*
X20598000Y-183919885D01*
X20598000Y-176228000D01*
X21055810Y-176228000D01*
X25301415Y-176228000D01*
X25369536Y-176248002D01*
X25416029Y-176301658D01*
X25426678Y-176367606D01*
X25423869Y-176393464D01*
X25423869Y-176393469D01*
X25423500Y-176396866D01*
X25423500Y-178779134D01*
X25430255Y-178841316D01*
X25481385Y-178977705D01*
X25568739Y-179094261D01*
X25685295Y-179181615D01*
X25821684Y-179232745D01*
X25883866Y-179239500D01*
X27504134Y-179239500D01*
X27566316Y-179232745D01*
X27702705Y-179181615D01*
X27819261Y-179094261D01*
X27906615Y-178977705D01*
X27957745Y-178841316D01*
X27964500Y-178779134D01*
X27964500Y-176396866D01*
X27957745Y-176334684D01*
X27906615Y-176198295D01*
X27819261Y-176081739D01*
X27702705Y-175994385D01*
X27566316Y-175943255D01*
X27504134Y-175936500D01*
X25883866Y-175936500D01*
X25821684Y-175943255D01*
X25685295Y-175994385D01*
X25678112Y-175999768D01*
X25678109Y-175999770D01*
X25675755Y-176001535D01*
X25673021Y-176002557D01*
X25670240Y-176004079D01*
X25670020Y-176003678D01*
X25609249Y-176026382D01*
X25539866Y-176011329D01*
X25489637Y-175961154D01*
X25474191Y-175900708D01*
X25474191Y-175083779D01*
X27850971Y-175083779D01*
X27851341Y-175090600D01*
X27856865Y-175141462D01*
X27860491Y-175156714D01*
X27905646Y-175277164D01*
X27914184Y-175292759D01*
X27990685Y-175394834D01*
X28003246Y-175407395D01*
X28105321Y-175483896D01*
X28120916Y-175492434D01*
X28241364Y-175537588D01*
X28256619Y-175541215D01*
X28307484Y-175546741D01*
X28314298Y-175547110D01*
X29086345Y-175547110D01*
X29101584Y-175542635D01*
X29102789Y-175541245D01*
X29104460Y-175533562D01*
X29104460Y-175528994D01*
X29612460Y-175528994D01*
X29616935Y-175544233D01*
X29618325Y-175545438D01*
X29626008Y-175547109D01*
X30402619Y-175547109D01*
X30409440Y-175546739D01*
X30460302Y-175541215D01*
X30475554Y-175537589D01*
X30596004Y-175492434D01*
X30611599Y-175483896D01*
X30713674Y-175407395D01*
X30726235Y-175394834D01*
X30802736Y-175292759D01*
X30811274Y-175277164D01*
X30856428Y-175156716D01*
X30860055Y-175141461D01*
X30865581Y-175090596D01*
X30865950Y-175083782D01*
X30865950Y-174812115D01*
X30861475Y-174796876D01*
X30860085Y-174795671D01*
X30852402Y-174794000D01*
X29630575Y-174794000D01*
X29615336Y-174798475D01*
X29614131Y-174799865D01*
X29612460Y-174807548D01*
X29612460Y-175528994D01*
X29104460Y-175528994D01*
X29104460Y-174812115D01*
X29099985Y-174796876D01*
X29098595Y-174795671D01*
X29090912Y-174794000D01*
X27869086Y-174794000D01*
X27853847Y-174798475D01*
X27852642Y-174799865D01*
X27850971Y-174807548D01*
X27850971Y-175083779D01*
X25474191Y-175083779D01*
X25474191Y-174267885D01*
X27850970Y-174267885D01*
X27855445Y-174283124D01*
X27856835Y-174284329D01*
X27864518Y-174286000D01*
X29086345Y-174286000D01*
X29101584Y-174281525D01*
X29102789Y-174280135D01*
X29104460Y-174272452D01*
X29104460Y-174267885D01*
X29612460Y-174267885D01*
X29616935Y-174283124D01*
X29618325Y-174284329D01*
X29626008Y-174286000D01*
X30847834Y-174286000D01*
X30863073Y-174281525D01*
X30864278Y-174280135D01*
X30865949Y-174272452D01*
X30865949Y-173996221D01*
X30865579Y-173989400D01*
X30860055Y-173938538D01*
X30856429Y-173923286D01*
X30811274Y-173802836D01*
X30802736Y-173787241D01*
X30726235Y-173685166D01*
X30713674Y-173672605D01*
X30611599Y-173596104D01*
X30596004Y-173587566D01*
X30475556Y-173542412D01*
X30460301Y-173538785D01*
X30409436Y-173533259D01*
X30402622Y-173532890D01*
X29630575Y-173532890D01*
X29615336Y-173537365D01*
X29614131Y-173538755D01*
X29612460Y-173546438D01*
X29612460Y-174267885D01*
X29104460Y-174267885D01*
X29104460Y-173551006D01*
X29099985Y-173535767D01*
X29098595Y-173534562D01*
X29090912Y-173532891D01*
X28314301Y-173532891D01*
X28307480Y-173533261D01*
X28256618Y-173538785D01*
X28241366Y-173542411D01*
X28120916Y-173587566D01*
X28105321Y-173596104D01*
X28003246Y-173672605D01*
X27990685Y-173685166D01*
X27914184Y-173787241D01*
X27905646Y-173802836D01*
X27860492Y-173923284D01*
X27856865Y-173938539D01*
X27851339Y-173989404D01*
X27850970Y-173996218D01*
X27850970Y-174267885D01*
X25474191Y-174267885D01*
X25474191Y-173133610D01*
X25494193Y-173065489D01*
X25547849Y-173018996D01*
X25600191Y-173007610D01*
X27109164Y-173007610D01*
X27171346Y-173000855D01*
X27307735Y-172949725D01*
X27424291Y-172862371D01*
X27501812Y-172758935D01*
X27558671Y-172716420D01*
X27602638Y-172708500D01*
X29008150Y-172708500D01*
X29016720Y-172708792D01*
X29066838Y-172712209D01*
X29066842Y-172712209D01*
X29074414Y-172712725D01*
X29081891Y-172711420D01*
X29081892Y-172711420D01*
X29108370Y-172706799D01*
X29137365Y-172701738D01*
X29143883Y-172700777D01*
X29207304Y-172693102D01*
X29214405Y-172690419D01*
X29217014Y-172689778D01*
X29233324Y-172685315D01*
X29235860Y-172684550D01*
X29243346Y-172683243D01*
X29301862Y-172657556D01*
X29307966Y-172655065D01*
X29360610Y-172635173D01*
X29360611Y-172635172D01*
X29367718Y-172632487D01*
X29373981Y-172628183D01*
X29376347Y-172626946D01*
X29391159Y-172618701D01*
X29393413Y-172617368D01*
X29400367Y-172614315D01*
X29451064Y-172575413D01*
X29456394Y-172571541D01*
X29502782Y-172539661D01*
X29502787Y-172539656D01*
X29509043Y-172535357D01*
X29550498Y-172488829D01*
X29555478Y-172483554D01*
X31815165Y-170223868D01*
X31877477Y-170189842D01*
X31917867Y-170187700D01*
X31972467Y-170193631D01*
X31972471Y-170193631D01*
X31975866Y-170194000D01*
X32189500Y-170194000D01*
X32257621Y-170214002D01*
X32304114Y-170267658D01*
X32315500Y-170320000D01*
X32315500Y-175827880D01*
X32295498Y-175896001D01*
X32241842Y-175942494D01*
X32171568Y-175952598D01*
X32148587Y-175946712D01*
X32145718Y-175946030D01*
X32138316Y-175943255D01*
X32076134Y-175936500D01*
X30455866Y-175936500D01*
X30393684Y-175943255D01*
X30257295Y-175994385D01*
X30140739Y-176081739D01*
X30053385Y-176198295D01*
X30002255Y-176334684D01*
X29995500Y-176396866D01*
X29995500Y-178779134D01*
X30002255Y-178841316D01*
X30053385Y-178977705D01*
X30140739Y-179094261D01*
X30257295Y-179181615D01*
X30393684Y-179232745D01*
X30401536Y-179233598D01*
X30401540Y-179233599D01*
X30433125Y-179237030D01*
X30445108Y-179238331D01*
X30510669Y-179265572D01*
X30551096Y-179323935D01*
X30557500Y-179363594D01*
X30557500Y-182416406D01*
X30537498Y-182484527D01*
X30483842Y-182531020D01*
X30445108Y-182541669D01*
X30435872Y-182542672D01*
X30401540Y-182546401D01*
X30401536Y-182546402D01*
X30393684Y-182547255D01*
X30257295Y-182598385D01*
X30140739Y-182685739D01*
X30053385Y-182802295D01*
X30002255Y-182938684D01*
X29995500Y-183000866D01*
X29995500Y-185383134D01*
X30002255Y-185445316D01*
X30053385Y-185581705D01*
X30140739Y-185698261D01*
X30257295Y-185785615D01*
X30393684Y-185836745D01*
X30455866Y-185843500D01*
X32076134Y-185843500D01*
X32138316Y-185836745D01*
X32274705Y-185785615D01*
X32391261Y-185698261D01*
X32478615Y-185581705D01*
X32529745Y-185445316D01*
X32536500Y-185383134D01*
X32536500Y-183000866D01*
X32529745Y-182938684D01*
X32478615Y-182802295D01*
X32391261Y-182685739D01*
X32274705Y-182598385D01*
X32138316Y-182547255D01*
X32130464Y-182546402D01*
X32130460Y-182546401D01*
X32096128Y-182542672D01*
X32086892Y-182541669D01*
X32021331Y-182514428D01*
X31980904Y-182456065D01*
X31974500Y-182416406D01*
X31974500Y-179363594D01*
X31994502Y-179295473D01*
X32048158Y-179248980D01*
X32086892Y-179238331D01*
X32098875Y-179237030D01*
X32130460Y-179233599D01*
X32130464Y-179233598D01*
X32138316Y-179232745D01*
X32274705Y-179181615D01*
X32333936Y-179137223D01*
X32400442Y-179112377D01*
X32469824Y-179127430D01*
X32520054Y-179177605D01*
X32535500Y-179238051D01*
X32535500Y-180620634D01*
X32542255Y-180682816D01*
X32593385Y-180819205D01*
X32680739Y-180935761D01*
X32797295Y-181023115D01*
X32933684Y-181074245D01*
X32995866Y-181081000D01*
X33879501Y-181081000D01*
X33947622Y-181101002D01*
X33994115Y-181154658D01*
X34005501Y-181207000D01*
X34005501Y-181477087D01*
X34005209Y-181485657D01*
X34001276Y-181543351D01*
X34002581Y-181550828D01*
X34002581Y-181550829D01*
X34012262Y-181606298D01*
X34013224Y-181612820D01*
X34020899Y-181676241D01*
X34023582Y-181683342D01*
X34024223Y-181685951D01*
X34028686Y-181702261D01*
X34029451Y-181704797D01*
X34030758Y-181712283D01*
X34033812Y-181719240D01*
X34056443Y-181770794D01*
X34058934Y-181776898D01*
X34081514Y-181836655D01*
X34085818Y-181842918D01*
X34087055Y-181845284D01*
X34095300Y-181860096D01*
X34096633Y-181862350D01*
X34099686Y-181869304D01*
X34127845Y-181906000D01*
X34138580Y-181919990D01*
X34142460Y-181925331D01*
X34174340Y-181971719D01*
X34174345Y-181971724D01*
X34178644Y-181977980D01*
X34184314Y-181983031D01*
X34184315Y-181983033D01*
X34225171Y-182019434D01*
X34230447Y-182024415D01*
X35854595Y-183648564D01*
X35888621Y-183710876D01*
X35891500Y-183737659D01*
X35891500Y-184097126D01*
X35871498Y-184165247D01*
X35817842Y-184211740D01*
X35809729Y-184215108D01*
X35726705Y-184246232D01*
X35726704Y-184246233D01*
X35718295Y-184249385D01*
X35601739Y-184336739D01*
X35514385Y-184453295D01*
X35463255Y-184589684D01*
X35456500Y-184651866D01*
X35456500Y-187288134D01*
X35463255Y-187350316D01*
X35514385Y-187486705D01*
X35601739Y-187603261D01*
X35718295Y-187690615D01*
X35854684Y-187741745D01*
X35916866Y-187748500D01*
X37283134Y-187748500D01*
X37345316Y-187741745D01*
X37481705Y-187690615D01*
X37598261Y-187603261D01*
X37685615Y-187486705D01*
X37736745Y-187350316D01*
X37743500Y-187288134D01*
X37743500Y-184651866D01*
X37736745Y-184589684D01*
X37685615Y-184453295D01*
X37598261Y-184336739D01*
X37481705Y-184249385D01*
X37473296Y-184246233D01*
X37473295Y-184246232D01*
X37390271Y-184215108D01*
X37333506Y-184172467D01*
X37308806Y-184105905D01*
X37308500Y-184097126D01*
X37308500Y-183774660D01*
X37328502Y-183706539D01*
X37382158Y-183660046D01*
X37452432Y-183649942D01*
X37517012Y-183679436D01*
X37523595Y-183685565D01*
X38078644Y-184240614D01*
X38112670Y-184302926D01*
X38107605Y-184373741D01*
X38090376Y-184405273D01*
X38054385Y-184453295D01*
X38003255Y-184589684D01*
X37996500Y-184651866D01*
X37996500Y-187288134D01*
X38003255Y-187350316D01*
X38054385Y-187486705D01*
X38141739Y-187603261D01*
X38258295Y-187690615D01*
X38394684Y-187741745D01*
X38456866Y-187748500D01*
X39823134Y-187748500D01*
X39885316Y-187741745D01*
X40021705Y-187690615D01*
X40138261Y-187603261D01*
X40225615Y-187486705D01*
X40276745Y-187350316D01*
X40283500Y-187288134D01*
X40283500Y-184651866D01*
X40276745Y-184589684D01*
X40225615Y-184453295D01*
X40138261Y-184336739D01*
X40021705Y-184249385D01*
X40008058Y-184244269D01*
X39907572Y-184206598D01*
X39850808Y-184163956D01*
X39834436Y-184129259D01*
X39833104Y-184129762D01*
X39830682Y-184123353D01*
X39825313Y-184103728D01*
X39824548Y-184101195D01*
X39823243Y-184093717D01*
X39797552Y-184035190D01*
X39795067Y-184029102D01*
X39775172Y-183976449D01*
X39775171Y-183976447D01*
X39772487Y-183969344D01*
X39768186Y-183963085D01*
X39766949Y-183960720D01*
X39758727Y-183945948D01*
X39757372Y-183943656D01*
X39754316Y-183936695D01*
X39749691Y-183930668D01*
X39749689Y-183930664D01*
X39715407Y-183885987D01*
X39711529Y-183880650D01*
X39679659Y-183834278D01*
X39679658Y-183834277D01*
X39675357Y-183828019D01*
X39628838Y-183786572D01*
X39623563Y-183781592D01*
X38382471Y-182540500D01*
X37138065Y-181296095D01*
X37104040Y-181233783D01*
X37109104Y-181162968D01*
X37151651Y-181106132D01*
X37218171Y-181081321D01*
X37227160Y-181081000D01*
X37664134Y-181081000D01*
X37726316Y-181074245D01*
X37862705Y-181023115D01*
X37979261Y-180935761D01*
X38066615Y-180819205D01*
X38117745Y-180682816D01*
X38124500Y-180620634D01*
X38124500Y-180454500D01*
X38144502Y-180386379D01*
X38198158Y-180339886D01*
X38250500Y-180328500D01*
X41035840Y-180328500D01*
X41103961Y-180348502D01*
X41124935Y-180365405D01*
X41507644Y-180748114D01*
X41541670Y-180810426D01*
X41536605Y-180881241D01*
X41519376Y-180912773D01*
X41483385Y-180960795D01*
X41432255Y-181097184D01*
X41425500Y-181159366D01*
X41425500Y-182249340D01*
X41405498Y-182317461D01*
X41388595Y-182338435D01*
X41199480Y-182527550D01*
X41193215Y-182533404D01*
X41149615Y-182571439D01*
X41145248Y-182577653D01*
X41112872Y-182623719D01*
X41108939Y-182629014D01*
X41069524Y-182679282D01*
X41066401Y-182686198D01*
X41065017Y-182688484D01*
X41056643Y-182703165D01*
X41055378Y-182705525D01*
X41051010Y-182711739D01*
X41048250Y-182718818D01*
X41048249Y-182718820D01*
X41027798Y-182771275D01*
X41025247Y-182777344D01*
X40998955Y-182835573D01*
X40997571Y-182843040D01*
X40996770Y-182845595D01*
X40992141Y-182861848D01*
X40991478Y-182864428D01*
X40988718Y-182871509D01*
X40980849Y-182931285D01*
X40980379Y-182934852D01*
X40979348Y-182941359D01*
X40967704Y-183004186D01*
X40968141Y-183011766D01*
X40968141Y-183011767D01*
X40971291Y-183066392D01*
X40971500Y-183073646D01*
X40971500Y-184097126D01*
X40951498Y-184165247D01*
X40897842Y-184211740D01*
X40889729Y-184215108D01*
X40806705Y-184246232D01*
X40806704Y-184246233D01*
X40798295Y-184249385D01*
X40681739Y-184336739D01*
X40594385Y-184453295D01*
X40543255Y-184589684D01*
X40536500Y-184651866D01*
X40536500Y-187288134D01*
X40543255Y-187350316D01*
X40594385Y-187486705D01*
X40681739Y-187603261D01*
X40798295Y-187690615D01*
X40934684Y-187741745D01*
X40996866Y-187748500D01*
X42363134Y-187748500D01*
X42425316Y-187741745D01*
X42561705Y-187690615D01*
X42678261Y-187603261D01*
X42765615Y-187486705D01*
X42816745Y-187350316D01*
X42823500Y-187288134D01*
X43076500Y-187288134D01*
X43083255Y-187350316D01*
X43134385Y-187486705D01*
X43221739Y-187603261D01*
X43338295Y-187690615D01*
X43474684Y-187741745D01*
X43536866Y-187748500D01*
X44903134Y-187748500D01*
X44965316Y-187741745D01*
X45101705Y-187690615D01*
X45218261Y-187603261D01*
X45305615Y-187486705D01*
X45356745Y-187350316D01*
X45363500Y-187288134D01*
X45363500Y-187284669D01*
X45617001Y-187284669D01*
X45617371Y-187291490D01*
X45622895Y-187342352D01*
X45626521Y-187357604D01*
X45671676Y-187478054D01*
X45680214Y-187493649D01*
X45756715Y-187595724D01*
X45769276Y-187608285D01*
X45871351Y-187684786D01*
X45886946Y-187693324D01*
X46007394Y-187738478D01*
X46022649Y-187742105D01*
X46073514Y-187747631D01*
X46080328Y-187748000D01*
X46487885Y-187748000D01*
X46503124Y-187743525D01*
X46504329Y-187742135D01*
X46506000Y-187734452D01*
X46506000Y-187729884D01*
X47014000Y-187729884D01*
X47018475Y-187745123D01*
X47019865Y-187746328D01*
X47027548Y-187747999D01*
X47439669Y-187747999D01*
X47446490Y-187747629D01*
X47497352Y-187742105D01*
X47512604Y-187738479D01*
X47633054Y-187693324D01*
X47648649Y-187684786D01*
X47750724Y-187608285D01*
X47763285Y-187595724D01*
X47839786Y-187493649D01*
X47848324Y-187478054D01*
X47893478Y-187357606D01*
X47897105Y-187342351D01*
X47902631Y-187291486D01*
X47903000Y-187284672D01*
X47903000Y-186242115D01*
X47898525Y-186226876D01*
X47897135Y-186225671D01*
X47889452Y-186224000D01*
X47032115Y-186224000D01*
X47016876Y-186228475D01*
X47015671Y-186229865D01*
X47014000Y-186237548D01*
X47014000Y-187729884D01*
X46506000Y-187729884D01*
X46506000Y-186242115D01*
X46501525Y-186226876D01*
X46500135Y-186225671D01*
X46492452Y-186224000D01*
X45635116Y-186224000D01*
X45619877Y-186228475D01*
X45618672Y-186229865D01*
X45617001Y-186237548D01*
X45617001Y-187284669D01*
X45363500Y-187284669D01*
X45363500Y-185697885D01*
X45617000Y-185697885D01*
X45621475Y-185713124D01*
X45622865Y-185714329D01*
X45630548Y-185716000D01*
X46487885Y-185716000D01*
X46503124Y-185711525D01*
X46504329Y-185710135D01*
X46506000Y-185702452D01*
X46506000Y-185697885D01*
X47014000Y-185697885D01*
X47018475Y-185713124D01*
X47019865Y-185714329D01*
X47027548Y-185716000D01*
X47884884Y-185716000D01*
X47900123Y-185711525D01*
X47901328Y-185710135D01*
X47902999Y-185702452D01*
X47902999Y-184655331D01*
X47902629Y-184648510D01*
X47897105Y-184597648D01*
X47893479Y-184582396D01*
X47848324Y-184461946D01*
X47839786Y-184446351D01*
X47763285Y-184344276D01*
X47750724Y-184331715D01*
X47648649Y-184255214D01*
X47633054Y-184246676D01*
X47512606Y-184201522D01*
X47497351Y-184197895D01*
X47446486Y-184192369D01*
X47439672Y-184192000D01*
X47032115Y-184192000D01*
X47016876Y-184196475D01*
X47015671Y-184197865D01*
X47014000Y-184205548D01*
X47014000Y-185697885D01*
X46506000Y-185697885D01*
X46506000Y-184210116D01*
X46501525Y-184194877D01*
X46500135Y-184193672D01*
X46492452Y-184192001D01*
X46080331Y-184192001D01*
X46073510Y-184192371D01*
X46022648Y-184197895D01*
X46007396Y-184201521D01*
X45886946Y-184246676D01*
X45871351Y-184255214D01*
X45769276Y-184331715D01*
X45756715Y-184344276D01*
X45680214Y-184446351D01*
X45671676Y-184461946D01*
X45626522Y-184582394D01*
X45622895Y-184597649D01*
X45617369Y-184648514D01*
X45617000Y-184655328D01*
X45617000Y-185697885D01*
X45363500Y-185697885D01*
X45363500Y-184651866D01*
X45356745Y-184589684D01*
X45305615Y-184453295D01*
X45218261Y-184336739D01*
X45101705Y-184249385D01*
X44965316Y-184198255D01*
X44903134Y-184191500D01*
X43536866Y-184191500D01*
X43474684Y-184198255D01*
X43338295Y-184249385D01*
X43221739Y-184336739D01*
X43134385Y-184453295D01*
X43083255Y-184589684D01*
X43076500Y-184651866D01*
X43076500Y-187288134D01*
X42823500Y-187288134D01*
X42823500Y-184651866D01*
X42816745Y-184589684D01*
X42765615Y-184453295D01*
X42678261Y-184336739D01*
X42561705Y-184249385D01*
X42553296Y-184246233D01*
X42553295Y-184246232D01*
X42470271Y-184215108D01*
X42413506Y-184172467D01*
X42388806Y-184105905D01*
X42388500Y-184097126D01*
X42388500Y-183747000D01*
X42408502Y-183678879D01*
X42462158Y-183632386D01*
X42514500Y-183621000D01*
X43252134Y-183621000D01*
X43314316Y-183614245D01*
X43450705Y-183563115D01*
X43567261Y-183475761D01*
X43654615Y-183359205D01*
X43705745Y-183222816D01*
X43712500Y-183160634D01*
X43712500Y-183157169D01*
X44728001Y-183157169D01*
X44728371Y-183163990D01*
X44733895Y-183214852D01*
X44737521Y-183230104D01*
X44782676Y-183350554D01*
X44791214Y-183366149D01*
X44867715Y-183468224D01*
X44880276Y-183480785D01*
X44982351Y-183557286D01*
X44997946Y-183565824D01*
X45118394Y-183610978D01*
X45133649Y-183614605D01*
X45184514Y-183620131D01*
X45191328Y-183620500D01*
X45598885Y-183620500D01*
X45614124Y-183616025D01*
X45615329Y-183614635D01*
X45617000Y-183606952D01*
X45617000Y-183602384D01*
X46125000Y-183602384D01*
X46129475Y-183617623D01*
X46130865Y-183618828D01*
X46138548Y-183620499D01*
X46550669Y-183620499D01*
X46557490Y-183620129D01*
X46608352Y-183614605D01*
X46623604Y-183610979D01*
X46744054Y-183565824D01*
X46759649Y-183557286D01*
X46861724Y-183480785D01*
X46874285Y-183468224D01*
X46950786Y-183366149D01*
X46959324Y-183350554D01*
X47004478Y-183230106D01*
X47008105Y-183214851D01*
X47013631Y-183163986D01*
X47014000Y-183157172D01*
X47014000Y-182432115D01*
X47009525Y-182416876D01*
X47008135Y-182415671D01*
X47000452Y-182414000D01*
X46143115Y-182414000D01*
X46127876Y-182418475D01*
X46126671Y-182419865D01*
X46125000Y-182427548D01*
X46125000Y-183602384D01*
X45617000Y-183602384D01*
X45617000Y-182432115D01*
X45612525Y-182416876D01*
X45611135Y-182415671D01*
X45603452Y-182414000D01*
X44746116Y-182414000D01*
X44730877Y-182418475D01*
X44729672Y-182419865D01*
X44728001Y-182427548D01*
X44728001Y-183157169D01*
X43712500Y-183157169D01*
X43712500Y-181887885D01*
X44728000Y-181887885D01*
X44732475Y-181903124D01*
X44733865Y-181904329D01*
X44741548Y-181906000D01*
X45598885Y-181906000D01*
X45614124Y-181901525D01*
X45615329Y-181900135D01*
X45617000Y-181892452D01*
X45617000Y-181887885D01*
X46125000Y-181887885D01*
X46129475Y-181903124D01*
X46130865Y-181904329D01*
X46138548Y-181906000D01*
X46995884Y-181906000D01*
X47011123Y-181901525D01*
X47012328Y-181900135D01*
X47013999Y-181892452D01*
X47013999Y-181162831D01*
X47013629Y-181156010D01*
X47008105Y-181105148D01*
X47004479Y-181089896D01*
X46959324Y-180969446D01*
X46950786Y-180953851D01*
X46874285Y-180851776D01*
X46861724Y-180839215D01*
X46759649Y-180762714D01*
X46744054Y-180754176D01*
X46623606Y-180709022D01*
X46608351Y-180705395D01*
X46557486Y-180699869D01*
X46550672Y-180699500D01*
X46143115Y-180699500D01*
X46127876Y-180703975D01*
X46126671Y-180705365D01*
X46125000Y-180713048D01*
X46125000Y-181887885D01*
X45617000Y-181887885D01*
X45617000Y-180717616D01*
X45612525Y-180702377D01*
X45611135Y-180701172D01*
X45603452Y-180699501D01*
X45191331Y-180699501D01*
X45184510Y-180699871D01*
X45133648Y-180705395D01*
X45118396Y-180709021D01*
X44997946Y-180754176D01*
X44982351Y-180762714D01*
X44880276Y-180839215D01*
X44867715Y-180851776D01*
X44791214Y-180953851D01*
X44782676Y-180969446D01*
X44737522Y-181089894D01*
X44733895Y-181105149D01*
X44728369Y-181156014D01*
X44728000Y-181162828D01*
X44728000Y-181887885D01*
X43712500Y-181887885D01*
X43712500Y-181159366D01*
X43705745Y-181097184D01*
X43654615Y-180960795D01*
X43567261Y-180844239D01*
X43450705Y-180756885D01*
X43437058Y-180751769D01*
X43336572Y-180714098D01*
X43279808Y-180671456D01*
X43263436Y-180636759D01*
X43262104Y-180637262D01*
X43259682Y-180630853D01*
X43254313Y-180611228D01*
X43253548Y-180608695D01*
X43252243Y-180601217D01*
X43226552Y-180542690D01*
X43224067Y-180536602D01*
X43204172Y-180483949D01*
X43204171Y-180483947D01*
X43201487Y-180476844D01*
X43197186Y-180470585D01*
X43195949Y-180468220D01*
X43187727Y-180453448D01*
X43186372Y-180451156D01*
X43183316Y-180444195D01*
X43178691Y-180438168D01*
X43178689Y-180438164D01*
X43144407Y-180393487D01*
X43140529Y-180388150D01*
X43108659Y-180341778D01*
X43108658Y-180341777D01*
X43104357Y-180335519D01*
X43057837Y-180294072D01*
X43052560Y-180289090D01*
X41902942Y-179139472D01*
X41897088Y-179133206D01*
X41864056Y-179095340D01*
X41864053Y-179095337D01*
X41859061Y-179089615D01*
X41806780Y-179052871D01*
X41801486Y-179048939D01*
X41757193Y-179014209D01*
X41751218Y-179009524D01*
X41744302Y-179006401D01*
X41742016Y-179005017D01*
X41727335Y-178996643D01*
X41724975Y-178995378D01*
X41718761Y-178991010D01*
X41711682Y-178988250D01*
X41711680Y-178988249D01*
X41659225Y-178967798D01*
X41653156Y-178965247D01*
X41594927Y-178938955D01*
X41587460Y-178937571D01*
X41584905Y-178936770D01*
X41568652Y-178932141D01*
X41566072Y-178931478D01*
X41558991Y-178928718D01*
X41551460Y-178927727D01*
X41551458Y-178927726D01*
X41521839Y-178923827D01*
X41495639Y-178920378D01*
X41489141Y-178919348D01*
X41426314Y-178907704D01*
X41418734Y-178908141D01*
X41418733Y-178908141D01*
X41364108Y-178911291D01*
X41356854Y-178911500D01*
X38250500Y-178911500D01*
X38182379Y-178891498D01*
X38135886Y-178837842D01*
X38124500Y-178785500D01*
X38124500Y-178619366D01*
X38117745Y-178557184D01*
X38066615Y-178420795D01*
X37979261Y-178304239D01*
X37862705Y-178216885D01*
X37854296Y-178213733D01*
X37854295Y-178213732D01*
X37771271Y-178182608D01*
X37714506Y-178139967D01*
X37689806Y-178073405D01*
X37689500Y-178064626D01*
X37689500Y-177321480D01*
X37709502Y-177253359D01*
X37763158Y-177206866D01*
X37833432Y-177196762D01*
X37873147Y-177210006D01*
X37877295Y-177213115D01*
X37885696Y-177216264D01*
X37885697Y-177216265D01*
X37944919Y-177238466D01*
X38013684Y-177264245D01*
X38075866Y-177271000D01*
X39442134Y-177271000D01*
X39504316Y-177264245D01*
X39640705Y-177213115D01*
X39757261Y-177125761D01*
X39844615Y-177009205D01*
X39895745Y-176872816D01*
X39902500Y-176810634D01*
X39902500Y-176807169D01*
X40918001Y-176807169D01*
X40918371Y-176813990D01*
X40923895Y-176864852D01*
X40927521Y-176880104D01*
X40972676Y-177000554D01*
X40981214Y-177016149D01*
X41057715Y-177118224D01*
X41070276Y-177130785D01*
X41172351Y-177207286D01*
X41187946Y-177215824D01*
X41308394Y-177260978D01*
X41323649Y-177264605D01*
X41374514Y-177270131D01*
X41381328Y-177270500D01*
X41788885Y-177270500D01*
X41804124Y-177266025D01*
X41805329Y-177264635D01*
X41807000Y-177256952D01*
X41807000Y-177252384D01*
X42315000Y-177252384D01*
X42319475Y-177267623D01*
X42320865Y-177268828D01*
X42328548Y-177270499D01*
X42740669Y-177270499D01*
X42747490Y-177270129D01*
X42798352Y-177264605D01*
X42813604Y-177260979D01*
X42934054Y-177215824D01*
X42949649Y-177207286D01*
X43051724Y-177130785D01*
X43064285Y-177118224D01*
X43140786Y-177016149D01*
X43149324Y-177000554D01*
X43194478Y-176880106D01*
X43198105Y-176864851D01*
X43203631Y-176813986D01*
X43204000Y-176807172D01*
X43204000Y-176082115D01*
X43199525Y-176066876D01*
X43198135Y-176065671D01*
X43190452Y-176064000D01*
X42333115Y-176064000D01*
X42317876Y-176068475D01*
X42316671Y-176069865D01*
X42315000Y-176077548D01*
X42315000Y-177252384D01*
X41807000Y-177252384D01*
X41807000Y-176082115D01*
X41802525Y-176066876D01*
X41801135Y-176065671D01*
X41793452Y-176064000D01*
X40936116Y-176064000D01*
X40920877Y-176068475D01*
X40919672Y-176069865D01*
X40918001Y-176077548D01*
X40918001Y-176807169D01*
X39902500Y-176807169D01*
X39902500Y-174809366D01*
X39895745Y-174747184D01*
X39844615Y-174610795D01*
X39839234Y-174603615D01*
X39837533Y-174600508D01*
X39822364Y-174531151D01*
X39837533Y-174479492D01*
X39839234Y-174476385D01*
X39844615Y-174469205D01*
X39895745Y-174332816D01*
X39902500Y-174270634D01*
X39902500Y-172269366D01*
X39895745Y-172207184D01*
X39844615Y-172070795D01*
X39757261Y-171954239D01*
X39640705Y-171866885D01*
X39504316Y-171815755D01*
X39442134Y-171809000D01*
X38075866Y-171809000D01*
X38013684Y-171815755D01*
X37977713Y-171829240D01*
X37885697Y-171863735D01*
X37885696Y-171863736D01*
X37877295Y-171866885D01*
X37873766Y-171869530D01*
X37806653Y-171884209D01*
X37740105Y-171859473D01*
X37697494Y-171802686D01*
X37689500Y-171758520D01*
X37689500Y-160541412D01*
X37689792Y-160532842D01*
X37693209Y-160482724D01*
X37693209Y-160482720D01*
X37693725Y-160475148D01*
X37682738Y-160412197D01*
X37681776Y-160405675D01*
X37675014Y-160349798D01*
X37674102Y-160342258D01*
X37671419Y-160335157D01*
X37670778Y-160332548D01*
X37666315Y-160316238D01*
X37665550Y-160313702D01*
X37664243Y-160306216D01*
X37638556Y-160247700D01*
X37636065Y-160241596D01*
X37616173Y-160188952D01*
X37616172Y-160188951D01*
X37613487Y-160181844D01*
X37609183Y-160175581D01*
X37607946Y-160173215D01*
X37599701Y-160158403D01*
X37598368Y-160156149D01*
X37595315Y-160149195D01*
X37556413Y-160098498D01*
X37552541Y-160093168D01*
X37520661Y-160046780D01*
X37520656Y-160046775D01*
X37516357Y-160040519D01*
X37508628Y-160033632D01*
X37469830Y-159999065D01*
X37464554Y-159994084D01*
X35515066Y-158044596D01*
X35481040Y-157982284D01*
X35486105Y-157911469D01*
X35515066Y-157866406D01*
X35810536Y-157570936D01*
X35816801Y-157565082D01*
X35854664Y-157532052D01*
X35854665Y-157532051D01*
X35860385Y-157527061D01*
X35897136Y-157474771D01*
X35901028Y-157469529D01*
X35940476Y-157419218D01*
X35943600Y-157412299D01*
X35944988Y-157410007D01*
X35953357Y-157395335D01*
X35954622Y-157392975D01*
X35958990Y-157386761D01*
X35962907Y-157376716D01*
X35982202Y-157327225D01*
X35984759Y-157321142D01*
X35994407Y-157299776D01*
X36011045Y-157262927D01*
X36012430Y-157255454D01*
X36013234Y-157252888D01*
X36017855Y-157236665D01*
X36018520Y-157234073D01*
X36021282Y-157226991D01*
X36029622Y-157163639D01*
X36030654Y-157157123D01*
X36040911Y-157101781D01*
X36042295Y-157094314D01*
X36038709Y-157032115D01*
X36038500Y-157024867D01*
X36038500Y-155922696D01*
X36058502Y-155854575D01*
X36112158Y-155808082D01*
X36120270Y-155804714D01*
X36193137Y-155777397D01*
X36201545Y-155774245D01*
X36318101Y-155686891D01*
X36405455Y-155570335D01*
X36456585Y-155433946D01*
X36463340Y-155371764D01*
X36463340Y-155368299D01*
X36737161Y-155368299D01*
X36737531Y-155375120D01*
X36743055Y-155425982D01*
X36746681Y-155441234D01*
X36791836Y-155561684D01*
X36800374Y-155577279D01*
X36876875Y-155679354D01*
X36889436Y-155691915D01*
X36991511Y-155768416D01*
X37007106Y-155776954D01*
X37127554Y-155822108D01*
X37142809Y-155825735D01*
X37193674Y-155831261D01*
X37200488Y-155831630D01*
X37597885Y-155831630D01*
X37613124Y-155827155D01*
X37614329Y-155825765D01*
X37616000Y-155818082D01*
X37616000Y-155813514D01*
X38124000Y-155813514D01*
X38128475Y-155828753D01*
X38129865Y-155829958D01*
X38137548Y-155831629D01*
X38539509Y-155831629D01*
X38546330Y-155831259D01*
X38597192Y-155825735D01*
X38612444Y-155822109D01*
X38732894Y-155776954D01*
X38748489Y-155768416D01*
X38850564Y-155691915D01*
X38863125Y-155679354D01*
X38939626Y-155577279D01*
X38948164Y-155561684D01*
X38993318Y-155441236D01*
X38996945Y-155425981D01*
X39002471Y-155375116D01*
X39002653Y-155371764D01*
X39276660Y-155371764D01*
X39283415Y-155433946D01*
X39334545Y-155570335D01*
X39421899Y-155686891D01*
X39538455Y-155774245D01*
X39546863Y-155777397D01*
X39619730Y-155804714D01*
X39676494Y-155847356D01*
X39701194Y-155913918D01*
X39701500Y-155922696D01*
X39701500Y-162492588D01*
X39701208Y-162501158D01*
X39698557Y-162540053D01*
X39697275Y-162558852D01*
X39698580Y-162566329D01*
X39698580Y-162566330D01*
X39708261Y-162621799D01*
X39709223Y-162628321D01*
X39716898Y-162691742D01*
X39719581Y-162698843D01*
X39720222Y-162701452D01*
X39724685Y-162717762D01*
X39725450Y-162720298D01*
X39726757Y-162727784D01*
X39729811Y-162734741D01*
X39752442Y-162786295D01*
X39754935Y-162792404D01*
X39772195Y-162838081D01*
X39777513Y-162852156D01*
X39781817Y-162858419D01*
X39783054Y-162860785D01*
X39791299Y-162875597D01*
X39792632Y-162877851D01*
X39795685Y-162884805D01*
X39830042Y-162929578D01*
X39834579Y-162935491D01*
X39838459Y-162940832D01*
X39870339Y-162987220D01*
X39870344Y-162987225D01*
X39874643Y-162993481D01*
X39880313Y-162998532D01*
X39880314Y-162998534D01*
X39921170Y-163034935D01*
X39926446Y-163039916D01*
X40402550Y-163516020D01*
X40408404Y-163522285D01*
X40446439Y-163565885D01*
X40452657Y-163570255D01*
X40498697Y-163602612D01*
X40503993Y-163606545D01*
X40554282Y-163645977D01*
X40561204Y-163649102D01*
X40563452Y-163650464D01*
X40578185Y-163658868D01*
X40580524Y-163660122D01*
X40586739Y-163664490D01*
X40593815Y-163667249D01*
X40593819Y-163667251D01*
X40646269Y-163687700D01*
X40652334Y-163690249D01*
X40710573Y-163716545D01*
X40718038Y-163717929D01*
X40720582Y-163718726D01*
X40736872Y-163723366D01*
X40737612Y-163723556D01*
X40737679Y-163723596D01*
X40740119Y-163724291D01*
X40746509Y-163726782D01*
X40746512Y-163726783D01*
X40745857Y-163728463D01*
X40798620Y-163759868D01*
X40830310Y-163823400D01*
X40825184Y-163879702D01*
X40826856Y-163880100D01*
X40825029Y-163887784D01*
X40822255Y-163895184D01*
X40815500Y-163957366D01*
X40815500Y-164653634D01*
X40822255Y-164715816D01*
X40873385Y-164852205D01*
X40882926Y-164864935D01*
X40907774Y-164931439D01*
X40892722Y-165000822D01*
X40882930Y-165016059D01*
X40873385Y-165028795D01*
X40822255Y-165165184D01*
X40815500Y-165227366D01*
X40815500Y-165923634D01*
X40822255Y-165985816D01*
X40873385Y-166122205D01*
X40882926Y-166134935D01*
X40907774Y-166201439D01*
X40892722Y-166270822D01*
X40882930Y-166286059D01*
X40873385Y-166298795D01*
X40822255Y-166435184D01*
X40815500Y-166497366D01*
X40815500Y-167193634D01*
X40822255Y-167255816D01*
X40873385Y-167392205D01*
X40882926Y-167404935D01*
X40907774Y-167471439D01*
X40892722Y-167540822D01*
X40882930Y-167556059D01*
X40873385Y-167568795D01*
X40822255Y-167705184D01*
X40815500Y-167767366D01*
X40815500Y-168463634D01*
X40822255Y-168525816D01*
X40873385Y-168662205D01*
X40882926Y-168674935D01*
X40907774Y-168741439D01*
X40892722Y-168810822D01*
X40882930Y-168826059D01*
X40873385Y-168838795D01*
X40822255Y-168975184D01*
X40815500Y-169037366D01*
X40815500Y-169733634D01*
X40822255Y-169795816D01*
X40873385Y-169932205D01*
X40960739Y-170048761D01*
X41077295Y-170136115D01*
X41213684Y-170187245D01*
X41231437Y-170189174D01*
X41240110Y-170190116D01*
X41305672Y-170217359D01*
X41346097Y-170275723D01*
X41352500Y-170315379D01*
X41352500Y-171714626D01*
X41332498Y-171782747D01*
X41278842Y-171829240D01*
X41270729Y-171832608D01*
X41187705Y-171863732D01*
X41187704Y-171863733D01*
X41179295Y-171866885D01*
X41062739Y-171954239D01*
X40975385Y-172070795D01*
X40924255Y-172207184D01*
X40917500Y-172269366D01*
X40917500Y-174270634D01*
X40924255Y-174332816D01*
X40975385Y-174469205D01*
X40980768Y-174476387D01*
X40982754Y-174480015D01*
X40997924Y-174549372D01*
X40982756Y-174601031D01*
X40972679Y-174619437D01*
X40927522Y-174739894D01*
X40923895Y-174755149D01*
X40918369Y-174806014D01*
X40918000Y-174812828D01*
X40918000Y-175537885D01*
X40922475Y-175553124D01*
X40923865Y-175554329D01*
X40931548Y-175556000D01*
X43185884Y-175556000D01*
X43201123Y-175551525D01*
X43202328Y-175550135D01*
X43203999Y-175542452D01*
X43203999Y-174812831D01*
X43203629Y-174806010D01*
X43198105Y-174755148D01*
X43194479Y-174739896D01*
X43149321Y-174619437D01*
X43139244Y-174601031D01*
X43124076Y-174531674D01*
X43139246Y-174480015D01*
X43141232Y-174476387D01*
X43146615Y-174469205D01*
X43197745Y-174332816D01*
X43204500Y-174270634D01*
X43204500Y-173560660D01*
X43224502Y-173492539D01*
X43278158Y-173446046D01*
X43348432Y-173435942D01*
X43413012Y-173465436D01*
X43419595Y-173471565D01*
X44968550Y-175020520D01*
X44974404Y-175026785D01*
X45012439Y-175070385D01*
X45018657Y-175074755D01*
X45064697Y-175107112D01*
X45069993Y-175111045D01*
X45120282Y-175150477D01*
X45127204Y-175153602D01*
X45129452Y-175154964D01*
X45144185Y-175163368D01*
X45146524Y-175164622D01*
X45152739Y-175168990D01*
X45159815Y-175171749D01*
X45159819Y-175171751D01*
X45212269Y-175192200D01*
X45218334Y-175194749D01*
X45276573Y-175221045D01*
X45284038Y-175222429D01*
X45286582Y-175223226D01*
X45302848Y-175227859D01*
X45305428Y-175228521D01*
X45312509Y-175231282D01*
X45320042Y-175232274D01*
X45320043Y-175232274D01*
X45352699Y-175236573D01*
X45375857Y-175239622D01*
X45382355Y-175240650D01*
X45445187Y-175252296D01*
X45452767Y-175251859D01*
X45452768Y-175251859D01*
X45507398Y-175248709D01*
X45514651Y-175248500D01*
X48137362Y-175248500D01*
X48205483Y-175268502D01*
X48238188Y-175298935D01*
X48315709Y-175402371D01*
X48432265Y-175489725D01*
X48568654Y-175540855D01*
X48630836Y-175547610D01*
X50726084Y-175547610D01*
X50788266Y-175540855D01*
X50802006Y-175535704D01*
X50872813Y-175530519D01*
X50935183Y-175564439D01*
X50969313Y-175626694D01*
X50972238Y-175653685D01*
X50972238Y-176228000D01*
X55247762Y-176228000D01*
X55247762Y-173797977D01*
X55267764Y-173729856D01*
X55301497Y-173700627D01*
X55312438Y-173688000D01*
X55319191Y-173688000D01*
X55319191Y-165232000D01*
X55311397Y-165232000D01*
X55291249Y-165214541D01*
X55252866Y-165154815D01*
X55247762Y-165119317D01*
X55247762Y-158571959D01*
X55267764Y-158503838D01*
X55321420Y-158457345D01*
X55338263Y-158451063D01*
X55348694Y-158448000D01*
X55366810Y-158448000D01*
X55366810Y-155072000D01*
X50853191Y-155072000D01*
X50853191Y-158166450D01*
X50833189Y-158234571D01*
X50779533Y-158281064D01*
X50726084Y-158291184D01*
X50726084Y-158292390D01*
X48630836Y-158292390D01*
X48568654Y-158299145D01*
X48432265Y-158350275D01*
X48315709Y-158437629D01*
X48267312Y-158502205D01*
X48238188Y-158541065D01*
X48181329Y-158583580D01*
X48137362Y-158591500D01*
X43922404Y-158591500D01*
X43854283Y-158571498D01*
X43807790Y-158517842D01*
X43797686Y-158447568D01*
X43804422Y-158421270D01*
X43822478Y-158373105D01*
X43826105Y-158357851D01*
X43831631Y-158306986D01*
X43832000Y-158300172D01*
X43832000Y-158227615D01*
X43827525Y-158212376D01*
X43826135Y-158211171D01*
X43818452Y-158209500D01*
X42196000Y-158209500D01*
X42127879Y-158189498D01*
X42081386Y-158135842D01*
X42070000Y-158083500D01*
X42070000Y-157683385D01*
X42578000Y-157683385D01*
X42582475Y-157698624D01*
X42583865Y-157699829D01*
X42591548Y-157701500D01*
X43813884Y-157701500D01*
X43829123Y-157697025D01*
X43830328Y-157695635D01*
X43831999Y-157687952D01*
X43831999Y-157610831D01*
X43831629Y-157604010D01*
X43826105Y-157553148D01*
X43822479Y-157537896D01*
X43777324Y-157417446D01*
X43768786Y-157401851D01*
X43695285Y-157303779D01*
X44874051Y-157303779D01*
X44874421Y-157310600D01*
X44879945Y-157361462D01*
X44883571Y-157376714D01*
X44928726Y-157497164D01*
X44937264Y-157512759D01*
X45013765Y-157614834D01*
X45026326Y-157627395D01*
X45128401Y-157703896D01*
X45143996Y-157712434D01*
X45264444Y-157757588D01*
X45279699Y-157761215D01*
X45330564Y-157766741D01*
X45337378Y-157767110D01*
X46109425Y-157767110D01*
X46124664Y-157762635D01*
X46125869Y-157761245D01*
X46127540Y-157753562D01*
X46127540Y-157748994D01*
X46635540Y-157748994D01*
X46640015Y-157764233D01*
X46641405Y-157765438D01*
X46649088Y-157767109D01*
X47425699Y-157767109D01*
X47432520Y-157766739D01*
X47483382Y-157761215D01*
X47498634Y-157757589D01*
X47619084Y-157712434D01*
X47634679Y-157703896D01*
X47736754Y-157627395D01*
X47749315Y-157614834D01*
X47825816Y-157512759D01*
X47834354Y-157497164D01*
X47879508Y-157376716D01*
X47883135Y-157361461D01*
X47888661Y-157310596D01*
X47889030Y-157303782D01*
X47889030Y-157032115D01*
X47884555Y-157016876D01*
X47883165Y-157015671D01*
X47875482Y-157014000D01*
X46653655Y-157014000D01*
X46638416Y-157018475D01*
X46637211Y-157019865D01*
X46635540Y-157027548D01*
X46635540Y-157748994D01*
X46127540Y-157748994D01*
X46127540Y-157032115D01*
X46123065Y-157016876D01*
X46121675Y-157015671D01*
X46113992Y-157014000D01*
X44892166Y-157014000D01*
X44876927Y-157018475D01*
X44875722Y-157019865D01*
X44874051Y-157027548D01*
X44874051Y-157303779D01*
X43695285Y-157303779D01*
X43692285Y-157299776D01*
X43679724Y-157287215D01*
X43577649Y-157210714D01*
X43562054Y-157202176D01*
X43441606Y-157157022D01*
X43426351Y-157153395D01*
X43375486Y-157147869D01*
X43368672Y-157147500D01*
X42596115Y-157147500D01*
X42580876Y-157151975D01*
X42579671Y-157153365D01*
X42578000Y-157161048D01*
X42578000Y-157683385D01*
X42070000Y-157683385D01*
X42070000Y-157165616D01*
X42065525Y-157150377D01*
X42064135Y-157149172D01*
X42056452Y-157147501D01*
X41279331Y-157147501D01*
X41272509Y-157147871D01*
X41258105Y-157149435D01*
X41188223Y-157136906D01*
X41136208Y-157088584D01*
X41118500Y-157024172D01*
X41118500Y-156487885D01*
X44874050Y-156487885D01*
X44878525Y-156503124D01*
X44879915Y-156504329D01*
X44887598Y-156506000D01*
X46109425Y-156506000D01*
X46124664Y-156501525D01*
X46125869Y-156500135D01*
X46127540Y-156492452D01*
X46127540Y-156487885D01*
X46635540Y-156487885D01*
X46640015Y-156503124D01*
X46641405Y-156504329D01*
X46649088Y-156506000D01*
X47870914Y-156506000D01*
X47886153Y-156501525D01*
X47887358Y-156500135D01*
X47889029Y-156492452D01*
X47889029Y-156216221D01*
X47888659Y-156209400D01*
X47883135Y-156158538D01*
X47879509Y-156143286D01*
X47834354Y-156022836D01*
X47825816Y-156007241D01*
X47749315Y-155905166D01*
X47736754Y-155892605D01*
X47634679Y-155816104D01*
X47619084Y-155807566D01*
X47498636Y-155762412D01*
X47483381Y-155758785D01*
X47432516Y-155753259D01*
X47425702Y-155752890D01*
X46653655Y-155752890D01*
X46638416Y-155757365D01*
X46637211Y-155758755D01*
X46635540Y-155766438D01*
X46635540Y-156487885D01*
X46127540Y-156487885D01*
X46127540Y-155771006D01*
X46123065Y-155755767D01*
X46121675Y-155754562D01*
X46113992Y-155752891D01*
X45337381Y-155752891D01*
X45330560Y-155753261D01*
X45279698Y-155758785D01*
X45264446Y-155762411D01*
X45143996Y-155807566D01*
X45128401Y-155816104D01*
X45026326Y-155892605D01*
X45013765Y-155905166D01*
X44937264Y-156007241D01*
X44928726Y-156022836D01*
X44883572Y-156143284D01*
X44879945Y-156158539D01*
X44874419Y-156209404D01*
X44874050Y-156216218D01*
X44874050Y-156487885D01*
X41118500Y-156487885D01*
X41118500Y-155922696D01*
X41138502Y-155854575D01*
X41192158Y-155808082D01*
X41200270Y-155804714D01*
X41273137Y-155777397D01*
X41281545Y-155774245D01*
X41398101Y-155686891D01*
X41485455Y-155570335D01*
X41536585Y-155433946D01*
X41543340Y-155371764D01*
X41543340Y-152275756D01*
X41536585Y-152213574D01*
X41485455Y-152077185D01*
X41398101Y-151960629D01*
X41281545Y-151873275D01*
X41145156Y-151822145D01*
X41082974Y-151815390D01*
X39737026Y-151815390D01*
X39674844Y-151822145D01*
X39538455Y-151873275D01*
X39421899Y-151960629D01*
X39334545Y-152077185D01*
X39283415Y-152213574D01*
X39276660Y-152275756D01*
X39276660Y-155371764D01*
X39002653Y-155371764D01*
X39002840Y-155368302D01*
X39002840Y-154095875D01*
X38998365Y-154080636D01*
X38996975Y-154079431D01*
X38989292Y-154077760D01*
X38142115Y-154077760D01*
X38126876Y-154082235D01*
X38125671Y-154083625D01*
X38124000Y-154091308D01*
X38124000Y-155813514D01*
X37616000Y-155813514D01*
X37616000Y-154095875D01*
X37611525Y-154080636D01*
X37610135Y-154079431D01*
X37602452Y-154077760D01*
X36755276Y-154077760D01*
X36740037Y-154082235D01*
X36738832Y-154083625D01*
X36737161Y-154091308D01*
X36737161Y-155368299D01*
X36463340Y-155368299D01*
X36463340Y-153551645D01*
X36737160Y-153551645D01*
X36741635Y-153566884D01*
X36743025Y-153568089D01*
X36750708Y-153569760D01*
X37597885Y-153569760D01*
X37613124Y-153565285D01*
X37614329Y-153563895D01*
X37616000Y-153556212D01*
X37616000Y-153551645D01*
X38124000Y-153551645D01*
X38128475Y-153566884D01*
X38129865Y-153568089D01*
X38137548Y-153569760D01*
X38984724Y-153569760D01*
X38999963Y-153565285D01*
X39001168Y-153563895D01*
X39002839Y-153556212D01*
X39002839Y-152279221D01*
X39002469Y-152272400D01*
X38996945Y-152221538D01*
X38993319Y-152206286D01*
X38948164Y-152085836D01*
X38939626Y-152070241D01*
X38863125Y-151968166D01*
X38850564Y-151955605D01*
X38748489Y-151879104D01*
X38732894Y-151870566D01*
X38612446Y-151825412D01*
X38597191Y-151821785D01*
X38546326Y-151816259D01*
X38539512Y-151815890D01*
X38142115Y-151815890D01*
X38126876Y-151820365D01*
X38125671Y-151821755D01*
X38124000Y-151829438D01*
X38124000Y-153551645D01*
X37616000Y-153551645D01*
X37616000Y-151834006D01*
X37611525Y-151818767D01*
X37610135Y-151817562D01*
X37602452Y-151815891D01*
X37200491Y-151815891D01*
X37193670Y-151816261D01*
X37142808Y-151821785D01*
X37127556Y-151825411D01*
X37007106Y-151870566D01*
X36991511Y-151879104D01*
X36889436Y-151955605D01*
X36876875Y-151968166D01*
X36800374Y-152070241D01*
X36791836Y-152085836D01*
X36746682Y-152206284D01*
X36743055Y-152221539D01*
X36737529Y-152272404D01*
X36737160Y-152279218D01*
X36737160Y-153551645D01*
X36463340Y-153551645D01*
X36463340Y-152275756D01*
X36456585Y-152213574D01*
X36405455Y-152077185D01*
X36318101Y-151960629D01*
X36201545Y-151873275D01*
X36065156Y-151822145D01*
X36002974Y-151815390D01*
X34657026Y-151815390D01*
X34594844Y-151822145D01*
X34458455Y-151873275D01*
X34341899Y-151960629D01*
X34254545Y-152077185D01*
X34203415Y-152213574D01*
X34196660Y-152275756D01*
X34196660Y-155371764D01*
X34203415Y-155433946D01*
X34254545Y-155570335D01*
X34341899Y-155686891D01*
X34458455Y-155774245D01*
X34466863Y-155777397D01*
X34539730Y-155804714D01*
X34596494Y-155847356D01*
X34621194Y-155913918D01*
X34621500Y-155922696D01*
X34621500Y-156703840D01*
X34601498Y-156771961D01*
X34584595Y-156792935D01*
X34255539Y-157121991D01*
X34193227Y-157156017D01*
X34138955Y-157155494D01*
X34134316Y-157153755D01*
X34126463Y-157152902D01*
X34126459Y-157152901D01*
X34075531Y-157147369D01*
X34072134Y-157147000D01*
X33829388Y-157147000D01*
X33761267Y-157126998D01*
X33714774Y-157073342D01*
X33708765Y-157057416D01*
X33708549Y-157056701D01*
X33707243Y-157049217D01*
X33704191Y-157042263D01*
X33704189Y-157042258D01*
X33681559Y-156990704D01*
X33679068Y-156984599D01*
X33659175Y-156931956D01*
X33659173Y-156931952D01*
X33656487Y-156924844D01*
X33652184Y-156918583D01*
X33650947Y-156916217D01*
X33642720Y-156901437D01*
X33641369Y-156899152D01*
X33638315Y-156892195D01*
X33633695Y-156886175D01*
X33633692Y-156886169D01*
X33599421Y-156841509D01*
X33595541Y-156836168D01*
X33563661Y-156789780D01*
X33563656Y-156789775D01*
X33559357Y-156783519D01*
X33512829Y-156742064D01*
X33507554Y-156737084D01*
X33049950Y-156279480D01*
X33044096Y-156273215D01*
X33043701Y-156272762D01*
X33006061Y-156229615D01*
X32953780Y-156192871D01*
X32948486Y-156188939D01*
X32904193Y-156154209D01*
X32898218Y-156149524D01*
X32891302Y-156146401D01*
X32889016Y-156145017D01*
X32874335Y-156136643D01*
X32871975Y-156135378D01*
X32865761Y-156131010D01*
X32858682Y-156128250D01*
X32858680Y-156128249D01*
X32806225Y-156107798D01*
X32800156Y-156105247D01*
X32741927Y-156078955D01*
X32734460Y-156077571D01*
X32731905Y-156076770D01*
X32715652Y-156072141D01*
X32713072Y-156071478D01*
X32705991Y-156068718D01*
X32698460Y-156067727D01*
X32698458Y-156067726D01*
X32668839Y-156063827D01*
X32642639Y-156060378D01*
X32636141Y-156059348D01*
X32573314Y-156047704D01*
X32565734Y-156048141D01*
X32565733Y-156048141D01*
X32511108Y-156051291D01*
X32503854Y-156051500D01*
X27602638Y-156051500D01*
X27534517Y-156031498D01*
X27501812Y-156001065D01*
X27429672Y-155904809D01*
X27424291Y-155897629D01*
X27307735Y-155810275D01*
X27171346Y-155759145D01*
X27109164Y-155752390D01*
X25552572Y-155752390D01*
X25484451Y-155732388D01*
X25437958Y-155678732D01*
X25426572Y-155626390D01*
X25426572Y-155072000D01*
X21103429Y-155072000D01*
X21103429Y-158448000D01*
X21108748Y-158448000D01*
X21116909Y-158475793D01*
X21122135Y-158483926D01*
X21127238Y-158519420D01*
X21127238Y-167662024D01*
X21107236Y-167730145D01*
X21073504Y-167759374D01*
X21062563Y-167772000D01*
X21055810Y-167772000D01*
X21055810Y-176228000D01*
X20598000Y-176228000D01*
X20598000Y-151044000D01*
X20618002Y-150975879D01*
X20671658Y-150929386D01*
X20724000Y-150918000D01*
X55651000Y-150918000D01*
X55719121Y-150938002D01*
G37*
G04 #@! TD.AperFunction*
M02*
